<?xml version="1.0" encoding="UTF-8" standalone="no"?>
<!-- Created with Inkscape (http://www.inkscape.org/) -->

<svg
   version="1.1"
   id="svg48"
   width="2666.6667"
   height="2666.6667"
   viewBox="0 0 2666.6667 2666.6667"
   sodipodi:docname="discoball.eps"
   xmlns:inkscape="http://www.inkscape.org/namespaces/inkscape"
   xmlns:sodipodi="http://sodipodi.sourceforge.net/DTD/sodipodi-0.dtd"
   xmlns="http://www.w3.org/2000/svg"
   xmlns:svg="http://www.w3.org/2000/svg">
  <defs
     id="defs52" />
  <sodipodi:namedview
     id="namedview50"
     pagecolor="#ffffff"
     bordercolor="#000000"
     borderopacity="0.25"
     inkscape:showpageshadow="2"
     inkscape:pageopacity="0.0"
     inkscape:pagecheckerboard="0"
     inkscape:deskcolor="#d1d1d1"
     showgrid="false" />
  <g
     id="g56"
     inkscape:groupmode="layer"
     inkscape:label="Page 1"
     transform="matrix(1.3333333,0,0,-1.3333333,0,2666.6667)">
    <g
       id="g58"
       transform="scale(0.1)">
      <path
         d="m 9758.16,14205.4 c 54.21,4.3 109.11,7.1 164.01,8.5 -9.36,6.7 -18.65,9.9 -27.87,9.7 l -14.84,-0.4 c -121.02,-4.9 -125.75,-5.1 -191.96,-10 l -21.17,-1.6 c 30.31,2.4 60.93,0.4 91.83,-6.2"
         style="fill:#231f20;fill-opacity:1;fill-rule:nonzero;stroke:none"
         id="path60" />
      <path
         d="m 9973.63,14214.8 c 54.87,0.5 109.47,-0.4 163.27,-2.7 14.1,6.7 28,9.7 41.9,9 -34.8,1.1 -81.3,2.7 -116.2,3.3 -30.1,0.2 -70.2,0.6 -100.29,0.3 3.74,0.1 7.52,-3.2 11.32,-9.9"
         style="fill:#231f20;fill-opacity:1;fill-rule:nonzero;stroke:none"
         id="path62" />
      <path
         d="m 12436.9,13437.8 c 159.7,-106.5 311.2,-225.8 453.6,-357.3 14.7,-13.6 29.3,-27.2 43.7,-41 -5,5.1 -10.2,10.2 -15.6,15.4 l -50.8,47.7 c -79.2,71.6 -95.7,86.5 -178.5,155.9 -92.7,74.8 -92.7,74.8 -141.3,111.6 -96.4,71.4 -96.4,71.4 -147.3,106.6 l -74.2,50.1 c 44.5,-29.3 81.2,-59 110.4,-89"
         style="fill:#151412;fill-opacity:1;fill-rule:nonzero;stroke:none"
         id="path64" />
      <path
         d="m 11575,13906.8 c 50.1,-28.5 89.3,-57.6 118,-87.1 201.2,-76.1 393.4,-168.3 575.8,-276.2 -37,37.9 -86.9,75.5 -150.3,112.2 l -32.6,18.7 c -162.3,92.2 -332.9,169.8 -510.9,232.4"
         style="fill:#6b6c6f;fill-opacity:1;fill-rule:nonzero;stroke:none"
         id="path66" />
      <path
         d="m 10811.6,14074.5 c 25.6,-14.6 45.7,-29.5 60.5,-44.6 214.4,-30.3 424.7,-78.2 630.1,-143.7 -25.5,26.1 -60.3,52 -104.7,77.2 -190.9,54.9 -386.6,91.9 -585.9,111.1"
         style="fill:#6b6c6f;fill-opacity:1;fill-rule:nonzero;stroke:none"
         id="path68" />
      <path
         d="m 10009.1,14057.4 v 0 c 223.4,16.3 443.9,14.9 660.8,-4.3 -11.3,11.5 -26.7,23 -46.4,34.1 -201.6,8 -406.7,-1.9 -614.4,-29.8"
         style="fill:#f5f5f5;fill-opacity:1;fill-rule:nonzero;stroke:none"
         id="path70" />
      <path
         d="m 14212.2,10347.2 c 1.4,-16.8 2.7,-33.7 3.8,-50.6 l -3.6,49.5 -0.5,5.3 c 0.1,-1.4 0.2,-2.8 0.3,-4.2"
         style="fill:#38383a;fill-opacity:1;fill-rule:nonzero;stroke:none"
         id="path72" />
      <path
         d="m 14047.6,11191.2 c 65.6,-209 113.1,-422.4 142.5,-639.5 -0.5,7.1 -1.2,14.2 -2.2,21.3 -5.3,36.6 -12.4,85.4 -18.3,121.9 -20.2,114.9 -20.2,114.9 -32.2,172.4 -25.1,114 -25.1,114 -39.4,170.9 -29.9,112.9 -29.9,112.9 -46.7,169.3 l -18.2,59.6 c 8,-25.4 12.8,-50.7 14.5,-75.9"
         style="fill:#6b6c6f;fill-opacity:1;fill-rule:nonzero;stroke:none"
         id="path74" />
      <path
         d="m 13699,11983.8 c 72.8,-125.9 138.6,-256 197.4,-389.9 30.2,-68.8 58.4,-138.2 84.5,-208.2 -2.1,30.8 -8.9,61.7 -20.5,92.6 l -23.9,62.3 c -44.1,109.2 -44.1,109.2 -68.1,163.6 -47.2,103.9 -47.2,103.9 -72.4,155.4 -51.2,101.8 -51.2,101.8 -78.6,152.2 -19.3,34.9 -45.2,81.3 -65.1,115.8 28,-47.9 43.4,-95.9 46.7,-143.8"
         style="fill:#38383a;fill-opacity:1;fill-rule:nonzero;stroke:none"
         id="path76" />
      <path
         d="m 13118.5,12847.4 c 40.6,-54.1 62.3,-108.5 66.1,-162.6 150.6,-164.7 286.3,-339.9 406.4,-524.8 -3.6,52.9 -22.6,106.2 -57.5,159.1 -26.2,39 -61.6,90.8 -88.5,129.3 -18.3,25 -42.5,58.5 -61,83.3 -82.4,109.7 -170.9,215 -265.5,315.7"
         style="fill:#a0a1a1;fill-opacity:1;fill-rule:nonzero;stroke:none"
         id="path78" />
      <path
         d="m 12471.5,13397.8 c 32.1,-42.8 49.3,-85.9 52.3,-128.7 165.4,-117.7 322.2,-247.4 469.8,-388.9 15.2,-14.6 30.3,-29.2 45.3,-44 -3.6,51.6 -24.3,103.5 -63.1,155.1 -14.6,14 -29.4,27.9 -44.3,41.7 -144.5,133.9 -298,255.6 -460,364.8"
         style="fill:#a0a1a1;fill-opacity:1;fill-rule:nonzero;stroke:none"
         id="path80" />
      <path
         d="m 11717,13791.9 c 22.3,-29.6 34.2,-59.5 36.2,-89.2 208.4,-90.1 407.5,-195.7 596.4,-316.2 -2.7,39.9 -18.8,79.9 -48.7,119.8 -185,110.8 -379.9,206.2 -583.9,285.6"
         style="fill:#6b6c6f;fill-opacity:1;fill-rule:nonzero;stroke:none"
         id="path82" />
      <path
         d="m 10884.3,14015.7 c 11.4,-15.2 17.6,-30.5 18.6,-45.8 222.1,-45.1 440,-107.7 652.7,-187.4 -1.9,26.3 -12.4,52.8 -32.2,79.1 -208.3,68.9 -421.6,120.3 -639.1,154.1"
         style="fill:#a0a1a1;fill-opacity:1;fill-rule:nonzero;stroke:none"
         id="path84" />
      <path
         d="m 10009.1,14057.4 v 0 c 231.3,0.8 459.8,-16 684.4,-50.2 -0.8,11.6 -5.5,23.3 -14.2,35 -220,22.7 -443.7,27.9 -670.2,15.2"
         style="fill:#38383a;fill-opacity:1;fill-rule:nonzero;stroke:none"
         id="path86" />
      <path
         d="m 13497,7630.5 c -64.2,-96.8 -132.8,-190.5 -205.9,-281 l 40.5,50.9 c 69.8,91.1 69.8,91.1 103.7,138.3 27.2,38.6 63,90.5 89.5,129.6 -8.4,-12.6 -17.7,-25.2 -27.8,-37.8"
         style="fill:#151412;fill-opacity:1;fill-rule:nonzero;stroke:none"
         id="path88" />
      <path
         d="m 13880.2,8382 c -25.8,-68.7 -53.6,-136.6 -83.4,-203.9 -57.8,-130.2 -122.5,-256.2 -193.8,-377.8 15.8,19.7 29.7,39.5 41.4,59.4 19.7,34.4 46,80.3 65.2,115 53.7,100.6 53.7,100.6 79.2,152.1 49.6,102.7 49.6,102.7 73,155.3 47,108.3 47,108.3 68.8,163.5 l 24.4,63 c -16.1,-42.7 -41.1,-84.9 -74.8,-126.6"
         style="fill:#a0a1a1;fill-opacity:1;fill-rule:nonzero;stroke:none"
         id="path90" />
      <path
         d="m 14087.3,9203.6 c -29.4,-215.3 -76.6,-425.9 -141.3,-631 39.1,48.4 66.7,97.5 82.5,147.1 l 18.3,58.8 c 32.6,112.3 32.6,112.3 47.2,169.2 27.9,113.4 27.9,113.4 40.1,170.8 23.1,114.5 23.1,114.5 32.9,172.4 5.8,36.7 13.6,85.7 18.8,122.5 -9.8,-70.9 -43,-141.1 -98.5,-209.8"
         style="fill:#f5f5f5;fill-opacity:1;fill-rule:nonzero;stroke:none"
         id="path92" />
      <path
         d="m 14209.9,10280.2 c -9.9,-71.4 -43.3,-142 -99.1,-211.1 8.8,-110.3 13,-221.1 12.8,-332.3 -0.2,-111 -4.9,-221 -14,-330 55.9,69.1 89.3,139.8 99.1,211.1 9.4,109.4 14.2,219.6 14.4,330.6 0.2,111.2 -4.2,221.8 -13.2,331.7"
         style="fill:#a0a1a1;fill-opacity:1;fill-rule:nonzero;stroke:none"
         id="path94" />
      <path
         d="m 14045.4,11126.8 c -9.5,-68.5 -41.6,-136.4 -95.2,-202.7 64,-213.3 110.3,-430 139,-649 55.5,68.7 88.7,139 98.5,209.9 -29.3,217.5 -76.8,431.8 -142.3,641.8"
         style="fill:#a0a1a1;fill-opacity:1;fill-rule:nonzero;stroke:none"
         id="path96" />
      <path
         d="m 13696.9,11925 c -8.6,-62.6 -37.9,-124.6 -86.9,-185.1 71,-130.8 135.3,-265.3 192.6,-403 29.5,-70.9 57,-142.1 82.5,-213.8 52.7,65.2 84.2,131.9 93.6,199.3 -26.1,70.4 -54.2,140.2 -84.4,209.5 -58.8,134.9 -124.6,266 -197.4,393.1"
         style="fill:#38383a;fill-opacity:1;fill-rule:nonzero;stroke:none"
         id="path98" />
      <path
         d="m 13182.8,12634.2 c -7.5,-53.8 -32.7,-107.1 -74.8,-159.3 147,-174.7 279.4,-358.9 396.6,-551.7 47.6,58.8 76,118.9 84.4,179.7 -120,186.8 -255.6,364.2 -406.2,531.3"
         style="fill:#6b6c6f;fill-opacity:1;fill-rule:nonzero;stroke:none"
         id="path100" />
      <path
         d="m 12522.4,13229 c -5.9,-42.6 -25.9,-84.8 -59.3,-126.1 161.5,-128.6 314.5,-268.7 458.5,-419.9 14.9,-15.6 29.6,-31.3 44.2,-47.1 40.2,49.7 64.3,100.6 71.4,152 -15,15 -30,29.9 -45.3,44.8 -147.4,143.7 -304.2,276 -469.5,396.3"
         style="fill:#6b6c6f;fill-opacity:1;fill-rule:nonzero;stroke:none"
         id="path102" />
      <path
         d="m 11752.3,13674.9 c -4.1,-29.5 -18,-58.8 -41.1,-87.4 203.3,-103.9 397.6,-222.7 582,-355.7 31,38.4 49.6,77.7 55.1,117.4 -188.8,123.5 -387.8,232.3 -596,325.7"
         style="fill:#a0a1a1;fill-opacity:1;fill-rule:nonzero;stroke:none"
         id="path104" />
      <path
         d="m 10902.4,13955.7 c -2.1,-15.1 -9.2,-30.1 -21,-44.8 216.7,-59.8 429.3,-136.8 636.9,-230.6 20.5,25.4 32.8,51.3 36.4,77.5 -212.6,83.2 -430.3,149.2 -652.3,197.9"
         style="fill:#f5f5f5;fill-opacity:1;fill-rule:nonzero;stroke:none"
         id="path106" />
      <path
         d="m 10009.1,14057.4 v 0 c 225.8,-14.5 448.7,-46.3 667.9,-95.4 9.1,11.2 14.5,22.7 16.1,34.3 -224.5,37.8 -452.8,58.2 -684,61.1"
         style="fill:#f5f5f5;fill-opacity:1;fill-rule:nonzero;stroke:none"
         id="path108" />
      <path
         d="m 12095.8,6330.9 -25.6,-14.6 34.8,19.8 -9.2,-5.2"
         style="fill:#6b6c6f;fill-opacity:1;fill-rule:nonzero;stroke:none"
         id="path110" />
      <path
         d="m 12715.7,6798 c -13.6,-13.1 -27.4,-26.1 -41.2,-39 -132.7,-123.5 -273.6,-234.2 -422.2,-331.8 21.5,12.1 41.7,24.4 60.7,36.7 36.8,24.8 85.8,57.9 122.2,83.2 94.8,68.5 96.6,69.8 145.7,107.8 91.2,72 93,73.4 139.8,112.9 87.8,75.5 89.5,76.9 134.3,118 l 51.6,48 c -49.4,-46.7 -113.2,-92.2 -190.9,-135.8"
         style="fill:#6b6c6f;fill-opacity:1;fill-rule:nonzero;stroke:none"
         id="path112" />
      <path
         d="m 13446.8,7575.8 c -59.4,-58 -137.6,-114.3 -233.7,-168.3 -108.3,-170.4 -230.6,-329.3 -366.3,-475.8 85.2,47.9 154.6,97.8 207.2,149.2 145.5,153.6 276.7,318.8 392.8,494.9"
         style="fill:#6b6c6f;fill-opacity:1;fill-rule:nonzero;stroke:none"
         id="path114" />
      <path
         d="m 13824.6,8321.3 c -65.9,-64.3 -152.7,-126.7 -259.3,-186.7 -23.7,-67 -49.2,-133.2 -76.7,-198.6 -53.1,-126.5 -112.5,-248.4 -178.1,-365.4 99,55.6 179.6,113.7 240.8,173.3 70.3,120.5 134.1,245.5 191,374.8 29.4,66.8 56.9,134.3 82.3,202.6"
         style="fill:#a0a1a1;fill-opacity:1;fill-rule:nonzero;stroke:none"
         id="path116" />
      <path
         d="m 14028.7,9139.7 c -69.4,-67.6 -160.8,-133.4 -273,-196.5 -27,-213.5 -70.4,-421.1 -129.9,-622.1 108.4,60.9 196.6,124.5 263.6,189.8 63.8,204 110.3,414 139.3,628.8"
         style="fill:#a0a1a1;fill-opacity:1;fill-rule:nonzero;stroke:none"
         id="path118" />
      <path
         d="m 14051.9,10004.8 c -69.8,-68 -161.6,-134.1 -274.4,-197.5 8,-110.9 11.9,-222 11.7,-333.2 -0.2,-111 -4.5,-220.7 -12.9,-329.1 112.8,63.4 204.7,129.6 274.4,197.6 9,108.8 13.6,218.7 13.8,329.7 0.3,111.2 -4,222.1 -12.6,332.5"
         style="fill:#a0a1a1;fill-opacity:1;fill-rule:nonzero;stroke:none"
         id="path120" />
      <path
         d="m 13893.6,10862.3 c -67,-65.3 -155.2,-128.8 -263.6,-189.8 58.7,-217.3 101.4,-437 127.6,-657.8 112.3,63.1 203.6,128.9 273,196.5 -28.2,219.5 -73.9,436.8 -137,651.1"
         style="fill:#151412;fill-opacity:1;fill-rule:nonzero;stroke:none"
         id="path122" />
      <path
         d="m 13558.3,11683.4 c -61.2,-59.6 -141.8,-117.6 -240.8,-173.3 65.3,-135.3 124.3,-273.9 177,-415.3 27.1,-72.7 52.3,-145.8 75.7,-219.1 106.6,59.9 193.3,122.4 259.2,186.6 -25.1,72.1 -52.1,143.9 -81.2,215.1 -56.5,138.7 -119.9,274.1 -189.9,406"
         style="fill:#38383a;fill-opacity:1;fill-rule:nonzero;stroke:none"
         id="path124" />
      <path
         d="m 13063.5,12426.4 c -52.6,-51.3 -122,-101.3 -207.1,-149.1 135.1,-184.1 256.7,-376.8 364.3,-577.2 96.1,54 174.3,110.4 233.8,168.3 -115.5,194.7 -246,381 -391,558"
         style="fill:#a0a1a1;fill-opacity:1;fill-rule:nonzero;stroke:none"
         id="path126" />
      <path
         d="m 12427.9,13064.5 c -41.6,-40.6 -96.5,-80.2 -164,-118.1 148.3,-138.9 289,-288.8 421.3,-449.2 13.6,-16.6 27.1,-33.2 40.6,-49.9 81.2,45.7 147.4,93.3 197.6,142.3 -14.4,16 -28.9,31.9 -43.6,47.8 -141.9,153.4 -292.7,296 -451.9,427.1"
         style="fill:#a0a1a1;fill-opacity:1;fill-rule:nonzero;stroke:none"
         id="path128" />
      <path
         d="m 11686.8,13560.8 c -28.9,-28.2 -67,-55.6 -113.7,-81.9 186.8,-116.8 365.3,-248 534.7,-392.7 62.7,35.2 113.8,72 152.6,109.9 -181.7,135.9 -373.2,257.7 -573.6,364.7"
         style="fill:#38383a;fill-opacity:1;fill-rule:nonzero;stroke:none"
         id="path130" />
      <path
         d="m 10868.9,13897.2 c -14.9,-14.4 -34.4,-28.4 -58.3,-41.9 199.1,-73.7 394.5,-164.2 585.2,-271.2 41.5,23.3 75.2,47.6 100.8,72.6 -204.5,97 -414.1,177.3 -627.7,240.5"
         style="fill:#6b6c6f;fill-opacity:1;fill-rule:nonzero;stroke:none"
         id="path132" />
      <path
         d="m 10009.1,14057.4 c 0,0 0,0 0,-0.1 207.4,-28.7 412.3,-74.9 613.7,-137.9 18.3,10.3 33.3,21 44.6,32.1 -216,52.5 -435.8,87.9 -658.3,105.9"
         style="fill:#a0a1a1;fill-opacity:1;fill-rule:nonzero;stroke:none"
         id="path134" />
      <path
         d="m 12033.5,6298.2 c -70,-34.2 -151.6,-66.9 -244,-97.3 -145.1,-87.2 -297.9,-157.8 -457.8,-211.2 1.6,0.6 3.2,1.1 4.8,1.6 l 69.1,23.7 c 113.4,41.4 122.7,44.8 195.6,74.5 110.9,46.8 117.5,49.6 183.7,80.3 l 74.8,35.8 c 59,28.9 116.9,59.8 173.8,92.6"
         style="fill:#a0a1a1;fill-opacity:1;fill-rule:nonzero;stroke:none"
         id="path136" />
      <path
         d="m 12635.1,6755.7 c -90.7,-44.4 -196.2,-86.6 -315.9,-126 -11.6,-12.3 -23.3,-24.4 -35.2,-36.4 -113.3,-115.3 -233.7,-217.3 -360.7,-305.7 99.3,32.7 186.9,67.7 262.1,104.6 144.2,95.3 281,203.8 409.7,325.2 13.4,12.6 26.7,25.4 40,38.3"
         style="fill:#38383a;fill-opacity:1;fill-rule:nonzero;stroke:none"
         id="path138" />
      <path
         d="m 13117.7,7357.5 c -107.2,-52.5 -232,-102.4 -373.4,-149 -92.6,-163.7 -197.1,-315 -313,-453.1 125.4,41.3 236,85.5 331,132 131.7,144.5 250.3,301.4 355.4,470.1"
         style="fill:#a0a1a1;fill-opacity:1;fill-rule:nonzero;stroke:none"
         id="path140" />
      <path
         d="m 13459.6,8079.2 c -118.9,-58.2 -257.3,-113.5 -414.2,-165.2 -20.3,-65.6 -42.1,-130.2 -65.6,-193.9 -45.4,-123.3 -96.2,-241.5 -152.2,-354.5 145.7,48 274.2,99.5 384.7,153.5 63.6,116 121.3,237 172.9,362.7 26.6,65 51.4,130.8 74.4,197.4"
         style="fill:#38383a;fill-opacity:1;fill-rule:nonzero;stroke:none"
         id="path142" />
      <path
         d="m 13644.4,8884.8 c -125.2,-61.3 -271,-119.6 -436.1,-174 -23.2,-211.8 -60.3,-416.8 -111.2,-614.1 159.6,52.6 300.3,108.9 421.2,168.1 57.7,200 99.8,407 126.1,620"
         style="fill:#a0a1a1;fill-opacity:1;fill-rule:nonzero;stroke:none"
         id="path144" />
      <path
         d="m 13665.5,9748.6 c -125.8,-61.6 -272.3,-120.2 -438.4,-174.9 6.8,-111.4 10.1,-222.8 9.9,-334 -0.2,-110.9 -3.9,-220.4 -11.1,-328.3 166.1,54.7 312.6,113.3 438.4,174.9 8.2,108.3 12.4,218 12.6,329 0.2,111.2 -3.6,222.3 -11.4,333.3"
         style="fill:#a0a1a1;fill-opacity:1;fill-rule:nonzero;stroke:none"
         id="path146" />
      <path
         d="m 13522.5,10616.2 c -120.9,-59.2 -261.6,-115.5 -421.2,-168 50.2,-221.1 86.5,-443.4 108.9,-665.9 165.2,54.5 310.9,112.8 436.1,174 -25.5,221.3 -66.8,441.6 -123.8,659.9"
         style="fill:#6b6c6f;fill-opacity:1;fill-rule:nonzero;stroke:none"
         id="path148" />
      <path
         d="m 13219.3,11458.7 c -110.4,-54.1 -239,-105.5 -384.7,-153.5 55.7,-139.4 106.1,-281.6 151.1,-426.3 23.1,-74.4 44.7,-149.1 64.6,-223.8 156.9,51.6 295.3,107 414.2,165.2 -22.7,73.7 -47.2,147.1 -73.5,220.3 -51.1,142.3 -108.4,281.7 -171.7,418.1"
         style="fill:#f5f5f5;fill-opacity:1;fill-rule:nonzero;stroke:none"
         id="path150" />
      <path
         d="m 12771.9,12233 c -95,-46.5 -205.6,-90.8 -331,-132.1 115.3,-192.5 219.2,-392.7 311.1,-599.7 141.4,46.6 266.2,96.5 373.4,149 -104.4,202 -222.5,396.6 -353.5,582.8"
         style="fill:#151412;fill-opacity:1;fill-rule:nonzero;stroke:none"
         id="path152" />
      <path
         d="m 12197,12911.4 c -75.2,-36.9 -162.8,-71.9 -262,-104.6 126.7,-148.1 246.7,-306.7 359.7,-475.3 11.6,-17.4 23.2,-34.9 34.7,-52.4 119.6,39.4 225.1,81.6 315.7,126 -13,16.9 -26.1,33.7 -39.4,50.5 -128.3,162.4 -264.7,314.6 -408.7,455.8"
         style="fill:#151412;fill-opacity:1;fill-rule:nonzero;stroke:none"
         id="path154" />
      <path
         d="m 11526.7,13454.6 c -52.2,-25.5 -112.9,-49.8 -181.8,-72.5 159.6,-128.4 312.1,-270.6 456.7,-425.9 92.4,30.5 173.9,63.1 243.9,97.3 -164.4,147.5 -337.6,281.4 -518.8,401.1"
         style="fill:#6b6c6f;fill-opacity:1;fill-rule:nonzero;stroke:none"
         id="path156" />
      <path
         d="m 10786.8,13842.8 c -26.7,-13.1 -57.8,-25.5 -93.1,-37.1 170.1,-86 337,-188.6 499.9,-307.5 61,20.1 114.8,41.7 161.1,64.3 -185.1,110 -374.7,203.6 -567.9,280.3"
         style="fill:#f5f5f5;fill-opacity:1;fill-rule:nonzero;stroke:none"
         id="path158" />
      <path
         d="m 10009.1,14057.3 v 0 c 177.2,-41.6 352.2,-100.4 524.2,-175.9 27,8.9 50.8,18.4 71.3,28.5 -195.4,66.2 -394.2,115.4 -595.5,147.4"
         style="fill:#6b6c6f;fill-opacity:1;fill-rule:nonzero;stroke:none"
         id="path160" />
      <path
         d="m 10903.3,5873.7 c -22.2,-5.7 -44.5,-10.9 -67,-15.6 35.6,7.7 83.2,17.6 118.7,25.7 l 86.1,20.9 c -43.4,-11 -89.3,-21.3 -137.8,-31"
         style="fill:#38383a;fill-opacity:1;fill-rule:nonzero;stroke:none"
         id="path162" />
      <path
         d="m 11699.7,6173 c -99.1,-29 -208.9,-55.7 -328.8,-79.6 -111.4,-78.6 -228.6,-140 -351.2,-183.8 89.3,17.8 171.2,37.7 245.1,59.3 151.8,50.9 297.1,119.1 434.9,204.1"
         style="fill:#6b6c6f;fill-opacity:1;fill-rule:nonzero;stroke:none"
         id="path164" />
      <path
         d="m 12203,6593.6 c -128.4,-37.6 -270.6,-72.2 -425.8,-103.1 -8.9,-11.6 -17.9,-23 -27,-34.3 -87,-108.5 -179.4,-203.3 -276.7,-284.1 128.8,25.6 246.8,54.3 353.3,85.5 120.6,86.5 235,186.6 342.7,300.1 11.3,11.8 22.4,23.8 33.5,35.9"
         style="fill:#f5f5f5;fill-opacity:1;fill-rule:nonzero;stroke:none"
         id="path166" />
      <path
         d="m 12606.8,7165.8 c -151.8,-44.4 -319.9,-85.3 -503.4,-121.9 -71.1,-158.2 -151.3,-303.2 -240.2,-434.5 162.7,32.5 311.7,68.7 446.2,108.1 110.2,136.4 209.5,286.1 297.4,448.3"
         style="fill:#6b6c6f;fill-opacity:1;fill-rule:nonzero;stroke:none"
         id="path168" />
      <path
         d="m 12892.9,7866.6 c -168.3,-49.3 -354.8,-94.6 -558.4,-135.2 -15.5,-64.4 -32.3,-127.7 -50.3,-190 -34.9,-120.5 -73.9,-235.8 -116.9,-345.4 189.1,37.7 362.3,79.8 518.6,125.6 53.3,112.1 101.6,229.6 144.7,352.2 22.3,63.3 43.1,127.6 62.3,192.8"
         style="fill:#6b6c6f;fill-opacity:1;fill-rule:nonzero;stroke:none"
         id="path170" />
      <path
         d="m 13047.7,8661 c -177.2,-51.9 -373.6,-99.7 -587.9,-142.4 -17.9,-210.4 -46.4,-413.3 -85.5,-607.5 207,41.2 396.6,87.3 567.8,137.5 48.3,196.5 83.6,400.9 105.6,612.4"
         style="fill:#a0a1a1;fill-opacity:1;fill-rule:nonzero;stroke:none"
         id="path172" />
      <path
         d="m 13065.6,9523.5 c -178.1,-52.1 -375.5,-100.2 -591,-143.1 5.1,-111.8 7.6,-223.4 7.4,-334.6 -0.2,-110.9 -3.1,-220.2 -8.6,-327.7 215.5,43 412.9,91 591.1,143.2 6.8,107.7 10.4,217.2 10.6,328.2 0.2,111.1 -3,222.6 -9.5,334"
         style="fill:#6b6c6f;fill-opacity:1;fill-rule:nonzero;stroke:none"
         id="path174" />
      <path
         d="m 12946.3,10400 c -171.2,-50.1 -360.8,-96.2 -567.8,-137.5 38.4,-224 66.1,-448.5 83.2,-672.4 214.4,42.7 410.7,90.5 587.9,142.4 -21.2,222.8 -55.7,445.7 -103.3,667.5"
         style="fill:#6b6c6f;fill-opacity:1;fill-rule:nonzero;stroke:none"
         id="path176" />
      <path
         d="m 12693,11261.2 c -156.3,-45.8 -329.5,-87.9 -518.6,-125.6 42.6,-142.7 81.2,-288 115.6,-435.4 17.7,-75.8 34.2,-151.7 49.5,-227.7 203.6,40.6 390,85.9 558.3,135.2 -18.9,75.1 -39.4,150.1 -61.3,224.8 -42.7,145.4 -90.6,288.4 -143.5,428.7"
         style="fill:#151412;fill-opacity:1;fill-rule:nonzero;stroke:none"
         id="path178" />
      <path
         d="m 12319,12063.1 c -134.5,-39.4 -283.5,-75.7 -446.2,-108.1 88.4,-199.4 168,-405.9 238.3,-618.4 183.6,36.6 351.7,77.5 503.4,121.9 -87.3,208.4 -185.9,410.3 -295.5,604.6"
         style="fill:#151412;fill-opacity:1;fill-rule:nonzero;stroke:none"
         id="path180" />
      <path
         d="m 11838.5,12776.8 c -106.5,-31.1 -224.5,-59.8 -353.3,-85.5 97.1,-155.7 189.1,-321.6 275.6,-496.9 9,-18.1 17.8,-36.3 26.6,-54.5 155.2,30.9 297.4,65.5 425.7,103.1 -10.9,17.7 -21.9,35.3 -32.9,52.9 -107.3,170.4 -221.4,330.9 -341.7,480.9"
         style="fill:#151412;fill-opacity:1;fill-rule:nonzero;stroke:none"
         id="path182" />
      <path
         d="m 11278,13361.3 c -73.8,-21.6 -155.6,-41.5 -244.9,-59.3 122.2,-137.9 239.1,-289.3 349.9,-453.3 119.9,23.9 229.7,50.6 328.8,79.6 -137.4,157.6 -282.2,302.2 -433.8,433"
         style="fill:#38383a;fill-opacity:1;fill-rule:nonzero;stroke:none"
         id="path184" />
      <path
         d="m 10659.4,13795 c -37.8,-11.1 -79.7,-21.2 -125.5,-30.4 130.4,-96.1 258.3,-208.8 383.1,-337.4 79.2,15.8 151.8,33.4 217.2,52.6 -154.7,121.4 -313.2,226.6 -474.8,315.2"
         style="fill:#a0a1a1;fill-opacity:1;fill-rule:nonzero;stroke:none"
         id="path186" />
      <path
         d="m 10009.1,14057.3 v 0 c 135.8,-52.2 270,-121.5 401.8,-207.3 35.1,7 67.2,14.8 96.2,23.3 -163.4,78.2 -329.7,139.7 -498,184"
         style="fill:#f5f5f5;fill-opacity:1;fill-rule:nonzero;stroke:none"
         id="path188" />
      <path
         d="m 10827.1,5859.5 c -48.3,-8.5 -98.7,-16.3 -151.3,-23.3 -38.2,-5.2 -76.8,-9.8 -115.8,-14 -34.4,-11.3 -69.2,-18.9 -104.3,-22.8 32.9,4 76.7,8.9 109.5,13.3 52.5,7.7 122.4,18.4 174.7,27.2 29.3,5.4 58.3,11.9 87.2,19.6"
         style="fill:#38383a;fill-opacity:1;fill-rule:nonzero;stroke:none"
         id="path190" />
      <path
         d="m 11255.5,6071.8 c -73.1,-12.8 -149.5,-24.6 -229,-35.3 -57.9,-7.8 -116.3,-14.8 -175.2,-21.2 -69.4,-72.2 -142.4,-127 -218.8,-163.8 43.9,4.7 87.5,9.9 130.6,15.7 59.3,8 116.2,16.8 170.6,26.3 112.4,41.9 219.8,101.5 321.8,178.3"
         style="fill:#f5f5f5;fill-opacity:1;fill-rule:nonzero;stroke:none"
         id="path192" />
      <path
         d="m 11627.8,6462.6 c -94.6,-16.6 -193.4,-31.8 -296.5,-45.7 -74.8,-10.1 -150.5,-19.2 -226.8,-27.4 -5.6,-11.1 -11.2,-22 -16.8,-32.8 -54.2,-103.6 -111.8,-193.2 -172.5,-268.5 63.3,6.8 126.1,14.4 188.3,22.8 85.5,11.5 167.5,24.1 246,37.9 89.2,79.3 173.9,172.6 253.6,279.8 8.3,11.1 16.5,22.4 24.7,33.9"
         style="fill:#f5f5f5;fill-opacity:1;fill-rule:nonzero;stroke:none"
         id="path194" />
      <path
         d="m 11926.7,7010.9 c -111.8,-19.6 -228.7,-37.6 -350.5,-54 -88.6,-11.9 -178.1,-22.7 -268.2,-32.4 -44.4,-154.2 -94.4,-294.7 -149.9,-420.9 80,8.6 159.3,18.2 237.8,28.7 107.9,14.5 211.6,30.5 310.7,47.9 81.5,129.8 155,273.6 220.1,430.7"
         style="fill:#38383a;fill-opacity:1;fill-rule:nonzero;stroke:none"
         id="path196" />
      <path
         d="m 12138.6,7694.8 c -124,-21.7 -253.7,-41.7 -388.7,-59.9 -98.3,-13.2 -197.5,-25.2 -297.5,-36 -9.8,-63.5 -20.3,-125.8 -31.5,-187.1 -21.8,-118.6 -46.2,-231.6 -73.1,-338.8 93,10 185.1,21.1 276.4,33.4 125.5,16.9 245.9,35.5 361.1,55.6 39.4,109 75.2,223.6 107.2,343.6 16.5,62 31.9,125.1 46.1,189.2"
         style="fill:#a0a1a1;fill-opacity:1;fill-rule:nonzero;stroke:none"
         id="path198" />
      <path
         d="m 12253.5,8480 c -130.6,-22.8 -267.1,-43.9 -409.4,-63 -103.4,-13.9 -207.9,-26.6 -313.2,-37.9 -11.3,-209.4 -29.2,-410.7 -53.7,-602.7 101.7,10.9 202.7,23.1 302.5,36.5 137.4,18.5 269.3,38.9 395.4,60.9 35.8,193.7 62,396.1 78.4,606.2"
         style="fill:#a0a1a1;fill-opacity:1;fill-rule:nonzero;stroke:none"
         id="path200" />
      <path
         d="m 12267.2,9341.6 c -131.3,-22.9 -268.6,-44.1 -411.6,-63.4 -104,-13.9 -209,-26.6 -314.9,-38 3.1,-112.1 4.6,-223.9 4.4,-335 -0.2,-111 -2.1,-220.2 -5.6,-327.3 105.9,11.4 210.9,24.1 314.9,38 143,19.3 280.3,40.5 411.6,63.5 5.1,107.3 7.8,216.6 8,327.6 0.2,111.2 -2.1,222.8 -6.8,334.6"
         style="fill:#6b6c6f;fill-opacity:1;fill-rule:nonzero;stroke:none"
         id="path202" />
      <path
         d="m 12179.3,10225.3 c -126.1,-22.1 -257.9,-42.4 -395.3,-60.9 -99.9,-13.4 -200.8,-25.6 -302.5,-36.6 23.7,-226.2 40.9,-452.3 51.3,-677.2 105.3,11.4 209.8,24 313.3,37.9 142.2,19.1 278.7,40.2 409.3,63 -15.6,224.2 -41,449.1 -76.1,673.8"
         style="fill:#f5f5f5;fill-opacity:1;fill-rule:nonzero;stroke:none"
         id="path204" />
      <path
         d="m 11992.4,11101.6 c -115.2,-20.2 -235.6,-38.8 -361,-55.7 -91.3,-12.2 -183.4,-23.3 -276.4,-33.3 26.5,-145.2 50.4,-292.7 71.7,-442 11,-76.8 21.2,-153.7 30.7,-230.6 100,10.8 199.2,22.8 297.4,36 135.1,18.1 264.8,38.2 388.8,59.9 -14,76.2 -29.1,152.4 -45.3,228.5 -31.5,147.9 -66.8,293.8 -105.9,437.2"
         style="fill:#151412;fill-opacity:1;fill-rule:nonzero;stroke:none"
         id="path206" />
      <path
         d="m 11716.3,11925.8 c -99.1,-17.4 -202.7,-33.4 -310.7,-47.9 -78.5,-10.5 -157.8,-20.1 -237.7,-28.7 54.9,-204.5 104.2,-415.5 147.9,-632 90.2,9.7 179.6,20.5 268.2,32.4 121.8,16.4 238.7,34.4 350.5,54 -64.4,213.6 -137.3,421.4 -218.2,622.2"
         style="fill:#f5f5f5;fill-opacity:1;fill-rule:nonzero;stroke:none"
         id="path208" />
      <path
         d="m 11361.3,12668.1 c -78.5,-13.7 -160.5,-26.4 -246,-37.9 -62.1,-8.3 -124.9,-15.9 -188.2,-22.7 60.3,-161.2 117.5,-332.3 171.2,-512.6 5.6,-18.6 11.1,-37.3 16.5,-56 76.3,8.2 152,17.3 226.8,27.4 103,13.9 201.9,29.1 296.4,45.7 -8,18.3 -16.1,36.6 -24.3,54.9 -79.2,176.7 -163.5,344 -252.4,501.2"
         style="fill:#6b6c6f;fill-opacity:1;fill-rule:nonzero;stroke:none"
         id="path210" />
      <path
         d="m 10947.1,13286 c -54.4,-9.6 -111.3,-18.3 -170.6,-26.3 -43,-5.8 -86.6,-11.1 -130.5,-15.8 76.1,-144.9 148.7,-302.9 217.6,-473.2 58.9,6.4 117.3,13.4 175.2,21.2 79.5,10.7 155.9,22.5 228.9,35.3 -101.6,165.7 -208.6,318.9 -320.6,458.8"
         style="fill:#a0a1a1;fill-opacity:1;fill-rule:nonzero;stroke:none"
         id="path212" />
      <path
         d="m 10489.9,13756.4 c -27.9,-4.9 -57.1,-9.4 -87.4,-13.5 -22.1,-2.9 -44.4,-5.6 -66.9,-8 81.1,-103.6 160.7,-223.5 238.3,-359.2 38.9,4.2 77.5,8.8 115.7,14 52.6,7 103,14.8 151.2,23.3 -114.3,130.6 -231.5,245.2 -350.9,343.4"
         style="fill:#6b6c6f;fill-opacity:1;fill-rule:nonzero;stroke:none"
         id="path214" />
      <path
         d="m 10009.1,14057.3 v 0 0 c 84.5,-59.9 168,-136.8 250,-230.1 17.2,1.8 34.3,3.9 51.2,6.2 23.3,3.1 45.6,6.5 66.9,10.3 -120.8,87.9 -243.7,159.3 -368.1,213.6"
         style="fill:#6b6c6f;fill-opacity:1;fill-rule:nonzero;stroke:none"
         id="path216" />
      <path
         d="m 10472.9,5813.6 c -93.5,-8.3 -188.3,-14 -283.3,-17.2 -15,-12.1 -30.2,-18.5 -45.5,-19.1 51.8,2.3 120.9,6 172.7,9.4 l 59.9,4.9 c 32.4,3 64.5,10.4 96.2,22"
         style="fill:#f5f5f5;fill-opacity:1;fill-rule:nonzero;stroke:none"
         id="path218" />
      <path
         d="m 10719.3,6002.4 c -141.4,-12.6 -284.9,-21.2 -428.7,-26 -24.1,-69.2 -49.4,-120.6 -75.9,-154 107.2,3.6 214.1,10 319.5,19.4 64.6,35.7 126.4,89.4 185.1,160.6"
         style="fill:#6b6c6f;fill-opacity:1;fill-rule:nonzero;stroke:none"
         id="path220" />
      <path
         d="m 10933.7,6372.7 c -183.1,-16.3 -368.9,-27.4 -555.1,-33.7 -1.9,-10.8 -3.9,-21.5 -5.8,-32 -18.9,-101.2 -38.9,-188.1 -60,-260.7 154.5,5.2 308.7,14.5 460.6,28 51.4,74.4 100.1,163.1 146,265.8 4.8,10.8 9.6,21.6 14.3,32.6"
         style="fill:#f5f5f5;fill-opacity:1;fill-rule:nonzero;stroke:none"
         id="path222" />
      <path
         d="m 11106,6904.6 c -216.5,-19.2 -436.2,-32.4 -656.3,-39.8 -15.6,-152.2 -33,-290.5 -52.4,-414.1 195.1,6.5 389.9,18.2 581.8,35.3 46.9,125.3 89.3,265.1 126.9,418.6"
         style="fill:#a0a1a1;fill-opacity:1;fill-rule:nonzero;stroke:none"
         id="path224" />
      <path
         d="m 11228.3,7576.9 c -240.1,-21.3 -483.7,-36 -727.9,-44.2 -3.4,-63 -7.1,-124.9 -11.1,-185.7 -7.7,-117.6 -16.2,-229.5 -25.7,-335.5 226.8,7.6 453.1,21.2 676.2,41 22.7,106.8 43.4,219.5 61.8,337.8 9.6,61.1 18.5,123.3 26.7,186.6"
         style="fill:#f5f5f5;fill-opacity:1;fill-rule:nonzero;stroke:none"
         id="path226" />
      <path
         d="m 11295,8355.9 c -252.9,-22.5 -509.4,-37.9 -766.5,-46.5 -4.1,-208.9 -10.6,-409.4 -19.3,-600.4 248.3,8.4 496.1,23.3 740.2,45 20.8,191.7 36,392.7 45.6,601.9"
         style="fill:#f5f5f5;fill-opacity:1;fill-rule:nonzero;stroke:none"
         id="path228" />
      <path
         d="m 11303.5,9216.9 c -254.2,-22.6 -512.1,-38.1 -770.5,-46.8 0.9,-112.3 1.3,-224.1 1.1,-335.3 -0.2,-110.9 -1,-220 -2.4,-327 258.5,8.7 516.4,24.2 770.6,46.8 3.1,107.1 4.7,216.2 4.9,327.2 0.2,111.2 -1,222.9 -3.7,335.1"
         style="fill:#a0a1a1;fill-opacity:1;fill-rule:nonzero;stroke:none"
         id="path230" />
      <path
         d="m 11253.7,10105.5 c -244.1,-21.7 -491.9,-36.6 -740.1,-45 7.9,-227.3 13.6,-454.2 16.9,-679.6 257.1,8.7 513.6,24.1 766.4,46.5 -8.7,225.1 -23.2,451.4 -43.2,678.1"
         style="fill:#38383a;fill-opacity:1;fill-rule:nonzero;stroke:none"
         id="path232" />
      <path
         d="m 11147,10992.1 c -223,-19.8 -449.3,-33.4 -676.1,-41 9,-146.4 17.1,-294.9 24.3,-445.3 3.7,-77.3 7.1,-154.7 10.3,-232 244.1,8.2 487.8,22.9 727.9,44.2 -8,77 -16.6,154.1 -25.9,231 -18,149.7 -38.2,297.5 -60.5,443.1"
         style="fill:#f5f5f5;fill-opacity:1;fill-rule:nonzero;stroke:none"
         id="path234" />
      <path
         d="m 10988.9,11831.6 c -191.9,-17.1 -386.6,-28.8 -581.7,-35.3 18.7,-207 35.6,-420.2 50.4,-638.8 220.1,7.4 439.8,20.6 656.2,39.8 -36.8,217.3 -78.6,429 -124.9,634.3"
         style="fill:#a0a1a1;fill-opacity:1;fill-rule:nonzero;stroke:none"
         id="path236" />
      <path
         d="m 10785.4,12593.6 c -152,-13.5 -306.1,-22.8 -460.6,-28 20.7,-164 40.3,-337.7 58.6,-520.4 1.9,-18.9 3.8,-37.8 5.7,-56.8 186.1,6.3 371.9,17.4 554.9,33.7 -4.6,18.8 -9.2,37.6 -13.9,56.3 -45.4,181.1 -93.7,353 -144.7,515.2"
         style="fill:#a0a1a1;fill-opacity:1;fill-rule:nonzero;stroke:none"
         id="path238" />
      <path
         d="m 10547.7,13234.3 c -105.3,-9.4 -212.2,-15.8 -319.3,-19.4 26.1,-148.4 51,-309.7 74.7,-483.2 143.7,4.9 287.2,13.5 428.6,26.1 -58.3,171.3 -119.7,330.4 -184,476.5"
         style="fill:#a0a1a1;fill-opacity:1;fill-rule:nonzero;stroke:none"
         id="path240" />
      <path
         d="m 10285.2,13729.9 c -53.9,-4.8 -108.7,-8.1 -163.6,-9.9 27.9,-107.3 55.3,-230.8 82,-370.1 95,3.2 189.7,8.9 283.1,17.2 -65.6,136.9 -132.9,258 -201.5,362.8"
         style="fill:#f5f5f5;fill-opacity:1;fill-rule:nonzero;stroke:none"
         id="path242" />
      <path
         d="m 10009.1,14057.3 v 0 c 29.1,-63.8 57.9,-144.4 86.2,-241.5 42,1.4 83.9,3.9 125.3,7.6 -69.4,94.6 -140,172.7 -211.5,233.9"
         style="fill:#6b6c6f;fill-opacity:1;fill-rule:nonzero;stroke:none"
         id="path244" />
      <path
         d="m 10100.5,5794.2 c -95,-1.7 -189.8,-0.9 -283.29,2.3 13.46,-12.1 27.12,-18.5 40.94,-19.1 l 82.35,-2 c 40.45,-0.2 94.4,-0.3 134.8,0.2 8.5,0.2 16.9,6.4 25.2,18.6"
         style="fill:#6b6c6f;fill-opacity:1;fill-rule:nonzero;stroke:none"
         id="path246" />
      <path
         d="m 10155.7,5972.9 c -143.8,-2.4 -287.31,-1.2 -428.8,3.6 21.44,-69.1 44.07,-120.6 67.79,-154 105.44,-3.6 212.41,-4.5 319.51,-2.7 14.5,33.1 28.3,84.3 41.5,153.1"
         style="fill:#6b6c6f;fill-opacity:1;fill-rule:nonzero;stroke:none"
         id="path248" />
      <path
         d="m 10204,6334.6 c -186.1,-3.2 -371.95,-1.6 -555.14,4.6 1.71,-10.8 3.43,-21.5 5.17,-32.1 16.65,-101.1 34.38,-188 53.11,-260.6 152.03,-5.2 306.26,-6.5 460.76,-3.8 11.5,72.3 22.5,159 32.9,259.9 1.1,10.5 2.2,21.2 3.2,32"
         style="fill:#a0a1a1;fill-opacity:1;fill-rule:nonzero;stroke:none"
         id="path250" />
      <path
         d="m 10243.2,6859.5 c -220.1,-3.8 -439.86,-1.8 -656.46,5.5 13.44,-152.1 28.7,-290.4 45.68,-414.1 192.01,-6.5 386.78,-8.2 581.88,-4.9 10.7,123.5 20.3,261.6 28.9,413.5"
         style="fill:#151412;fill-opacity:1;fill-rule:nonzero;stroke:none"
         id="path252" />
      <path
         d="m 10271.4,7526.9 c -244.1,-4.2 -487.8,-2.1 -728.04,6.1 2.88,-63 6,-125 9.36,-185.7 6.51,-117.7 13.83,-229.6 21.94,-335.6 223.15,-7.5 449.54,-9.5 676.24,-5.6 5.3,105.9 10,217.7 14.3,335.2 2.2,60.7 4.3,122.6 6.2,185.6"
         style="fill:#a0a1a1;fill-opacity:1;fill-rule:nonzero;stroke:none"
         id="path254" />
      <path
         d="m 10287.4,8303.3 c -257,-4.5 -513.65,-2.2 -766.61,6.4 3,-209 8.09,-409.4 15.25,-600.4 244.29,-8.3 492.06,-10.5 740.36,-6.2 4.9,190.9 8.6,391.3 11,600.2"
         style="fill:#38383a;fill-opacity:1;fill-rule:nonzero;stroke:none"
         id="path256" />
      <path
         d="m 10290.6,9163.9 c -258.5,-4.4 -516.46,-2.2 -770.78,6.5 -1.25,-112.3 -1.98,-224.1 -2.19,-335.3 -0.21,-111 0.11,-220 0.96,-327 254.32,-8.7 512.31,-10.9 770.71,-6.5 0.9,107 1.4,216.1 1.6,327.1 0.2,111.2 0.1,223 -0.3,335.2"
         style="fill:#38383a;fill-opacity:1;fill-rule:nonzero;stroke:none"
         id="path258" />
      <path
         d="m 10280.8,10054.6 c -248.3,-4.3 -496.09,-2.1 -740.37,6.2 -7.94,-227.4 -13.83,-454.3 -17.64,-679.6 252.95,-8.6 509.51,-10.8 766.61,-6.4 -1.6,225.4 -4.5,452.3 -8.6,679.8"
         style="fill:#151412;fill-opacity:1;fill-rule:nonzero;stroke:none"
         id="path260" />
      <path
         d="m 10258.2,10945.7 c -226.7,-3.9 -453.06,-2 -676.19,5.6 -8.59,-146.4 -16.41,-294.9 -23.42,-445.3 -3.61,-77.3 -6.98,-154.6 -10.11,-231.9 240.22,-8.2 483.92,-10.3 728.02,-6.1 -1.6,77.4 -3.5,154.7 -5.4,232.1 -3.8,150.4 -8.1,299.1 -12.9,445.6"
         style="fill:#f5f5f5;fill-opacity:1;fill-rule:nonzero;stroke:none"
         id="path262" />
      <path
         d="m 10224.2,11791.6 c -195.1,-3.3 -389.82,-1.7 -581.8,4.9 -17.6,-206.9 -33.51,-420.2 -47.65,-638.8 216.59,-7.3 436.25,-9.2 656.45,-5.4 -8,218.7 -16.9,432.2 -27,639.3"
         style="fill:#38383a;fill-opacity:1;fill-rule:nonzero;stroke:none"
         id="path264" />
      <path
         d="m 10180,12561.9 c -154.5,-2.6 -308.69,-1.3 -460.68,3.9 -19.2,-164 -37.44,-337.7 -54.63,-520.4 -1.78,-18.9 -3.54,-37.8 -5.28,-56.8 183.15,-6.2 368.99,-7.8 555.09,-4.6 -1,19 -2,37.9 -3,56.8 -9.9,183 -20.4,356.9 -31.5,521.1"
         style="fill:#6b6c6f;fill-opacity:1;fill-rule:nonzero;stroke:none"
         id="path266" />
      <path
         d="m 10127.9,13212.3 c -107.1,-1.8 -214.01,-0.9 -319.41,2.7 -24.05,-148.4 -47.08,-309.7 -68.98,-483.1 141.46,-4.8 284.99,-6.1 428.69,-3.6 -12.7,173.7 -26.2,335.3 -40.3,484"
         style="fill:#38383a;fill-opacity:1;fill-rule:nonzero;stroke:none"
         id="path268" />
      <path
         d="m 10070.1,13718.7 c -54.8,-1 -109.63,-0.5 -163.63,1.3 -25.54,-107.2 -50.63,-230.7 -75.16,-370 93.44,-3.1 188.29,-4 283.19,-2.3 -14.4,139.5 -29.2,263.4 -44.4,371"
         style="fill:#a0a1a1;fill-opacity:1;fill-rule:nonzero;stroke:none"
         id="path270" />
      <path
         d="m 10009.1,14057.3 v 0 c -26.55,-63.7 -52.76,-144.4 -78.56,-241.5 41.35,-1.4 83.26,-1.7 125.36,-1 -15.4,97.4 -31,178.4 -46.8,242.5"
         style="fill:#f5f5f5;fill-opacity:1;fill-rule:nonzero;stroke:none"
         id="path272" />
      <path
         d="m 9729.98,5800.2 c -92.53,4.6 -183.35,11.6 -271.27,20.7 34.28,-11.7 68.96,-19.5 104,-23.1 h 0.18 c 123.18,-11.5 125.53,-11.7 193.35,-15.7 l 33.67,-1.8 c -20.23,1 -40.21,7.7 -59.93,19.9"
         style="fill:#a0a1a1;fill-opacity:1;fill-rule:nonzero;stroke:none"
         id="path274" />
      <path
         d="m 9594.86,5982.1 c -140.06,7 -277.52,17.5 -410.6,31.4 65.26,-72.1 134.06,-126.7 206.08,-163.4 99.17,-10.4 201.6,-18.2 305.96,-23.4 -35.47,33.9 -69.33,85.8 -101.44,155.4"
         style="fill:#38383a;fill-opacity:1;fill-rule:nonzero;stroke:none"
         id="path276" />
      <path
         d="m 9477.92,6346.4 c -181.32,9.1 -359.29,22.7 -531.58,40.7 5.21,-11.1 10.48,-22 15.78,-32.8 50.85,-103.5 104.93,-192.9 161.99,-268.1 142.99,-14.9 290.68,-26.2 441.17,-33.7 -28.06,72.9 -54.63,160.3 -79.61,261.7 -2.6,10.6 -5.19,21.3 -7.75,32.2"
         style="fill:#151412;fill-opacity:1;fill-rule:nonzero;stroke:none"
         id="path278" />
      <path
         d="m 9384.61,6873.5 c -214.4,10.8 -424.84,26.9 -628.56,48.1 41.33,-154.1 88.08,-294.5 140.05,-420.6 180.58,-18.8 367.11,-33.1 557.16,-42.6 -25.5,124.1 -48.42,262.7 -68.65,415.1"
         style="fill:#38383a;fill-opacity:1;fill-rule:nonzero;stroke:none"
         id="path280" />
      <path
         d="m 9319.19,7542.4 c -237.8,12 -471.19,29.8 -697.15,53.4 8.97,-63.5 18.66,-125.9 29.07,-187.1 20.17,-118.6 42.78,-231.5 67.78,-338.7 209.88,-21.8 426.66,-38.4 647.54,-49.5 -12.22,106.1 -23.26,218.2 -33.09,336 -5.07,60.8 -9.79,122.8 -14.15,185.9"
         style="fill:#6b6c6f;fill-opacity:1;fill-rule:nonzero;stroke:none"
         id="path282" />
      <path
         d="m 9284.74,8319.6 c -250.39,12.6 -496.14,31.4 -734.05,56.2 9.88,-209.5 26.07,-410.6 48.49,-602.7 229.77,-23.9 467.09,-42.1 708.9,-54.2 -10.87,191.1 -18.66,391.7 -23.34,600.7"
         style="fill:#f5f5f5;fill-opacity:1;fill-rule:nonzero;stroke:none"
         id="path284" />
      <path
         d="m 9282.51,9180.3 c -251.73,12.7 -498.8,31.6 -737.99,56.5 -3.38,-112.1 -5.18,-223.8 -5.39,-335 -0.2,-111 1.18,-220.1 4.14,-327.3 239.2,-24.9 486.27,-43.8 738,-56.4 -1.36,107 -1.93,216 -1.73,327 0.21,111.2 1.2,223 2.97,335.2"
         style="fill:#f5f5f5;fill-opacity:1;fill-rule:nonzero;stroke:none"
         id="path286" />
      <path
         d="m 9312.49,10070.4 c -241.8,12.1 -479.11,30.3 -708.87,54.2 -23.21,-226.3 -40.21,-452.4 -50.91,-677.3 237.91,-24.8 483.65,-43.6 734.04,-56.2 5.48,225.3 14.08,452.1 25.74,679.3"
         style="fill:#a0a1a1;fill-opacity:1;fill-rule:nonzero;stroke:none"
         id="path288" />
      <path
         d="m 9373.81,10960.1 c -220.87,11 -437.63,27.6 -647.49,49.5 -25.51,-145.2 -48.65,-292.7 -69.34,-442.2 -10.63,-76.8 -20.56,-153.7 -29.76,-230.5 225.94,-23.6 459.31,-41.5 697.1,-53.4 4.61,77.3 9.57,154.5 14.89,231.8 10.34,150.2 21.88,298.6 34.6,444.8"
         style="fill:#f5f5f5;fill-opacity:1;fill-rule:nonzero;stroke:none"
         id="path290" />
      <path
         d="m 9463.26,11804 c -190.02,9.5 -376.52,23.8 -557.08,42.6 -52.59,-204.5 -100.01,-415.6 -142.04,-632.3 203.71,-21.2 414.12,-37.3 628.51,-48.1 20.92,218.3 44.5,431.2 70.61,637.8"
         style="fill:#a0a1a1;fill-opacity:1;fill-rule:nonzero;stroke:none"
         id="path292" />
      <path
         d="m 9577.49,12571.7 c -150.45,7.6 -298.11,18.9 -441.07,33.8 -57.57,-161.4 -112.2,-332.6 -163.64,-513 -5.31,-18.6 -10.57,-37.3 -15.79,-56 172.27,-18 350.21,-31.6 531.5,-40.7 2.6,19 5.21,37.8 7.84,56.6 25.53,182.4 52.62,355.8 81.16,519.3"
         style="fill:#6b6c6f;fill-opacity:1;fill-rule:nonzero;stroke:none"
         id="path294" />
      <path
         d="m 9710.14,13219.1 c -104.33,5.2 -206.73,13.1 -305.86,23.4 -72.35,-145.1 -141.55,-303.2 -207.27,-473.7 133.05,-13.8 270.48,-24.3 410.5,-31.4 32.56,173 66.82,333.8 102.63,481.7"
         style="fill:#f5f5f5;fill-opacity:1;fill-rule:nonzero;stroke:none"
         id="path296" />
      <path
         d="m 9856.07,13722.2 c -53.45,2.6 -105.92,6.7 -156.71,11.9 -77,-103.7 -152.6,-223.8 -226.44,-359.7 87.9,-9.1 178.68,-16.1 271.18,-20.7 36.53,138.7 73.91,261.7 111.97,368.5"
         style="fill:#6b6c6f;fill-opacity:1;fill-rule:nonzero;stroke:none"
         id="path298" />
      <path
         d="m 10009,14057.3 v 0 c -80.06,-60.1 -159.2,-137.2 -237.04,-230.7 38.89,-4 79.06,-7.1 119.99,-9.2 38.47,96.6 77.55,176.7 117.05,239.9"
         style="fill:#38383a;fill-opacity:1;fill-rule:nonzero;stroke:none"
         id="path300" />
      <path
         d="m 9377.15,5830.2 c -86,10.5 -168.74,23.2 -247.05,37.9 28.04,-7.5 56.24,-13.9 84.6,-19.4 40.56,-7.2 94.64,-16.8 135.31,-23.3 40.53,-5.8 94.57,-13.6 135.19,-18.8 -36.37,4.5 -72.39,12.4 -108.05,23.6"
         style="fill:#a0a1a1;fill-opacity:1;fill-rule:nonzero;stroke:none"
         id="path302" />
      <path
         d="m 9060.81,6027.4 c -130.18,16 -255.41,35.2 -373.93,57.5 105.42,-77.9 216.54,-138.5 332.83,-181.6 88.32,-16.6 181.64,-31 278.64,-42.8 -83.01,37.9 -162.31,93.7 -237.54,166.9"
         style="fill:#6b6c6f;fill-opacity:1;fill-rule:nonzero;stroke:none"
         id="path304" />
      <path
         d="m 8786.52,6405.2 c -168.53,20.6 -330.66,45.4 -484.11,74.3 8.44,-11.5 16.94,-22.9 25.52,-34.1 82.2,-108 169.59,-202.2 261.78,-282.4 127.34,-24 261.9,-44.7 401.76,-61.8 -65.78,76.2 -128.12,166.6 -186.75,270.9 -6.12,10.9 -12.19,21.9 -18.2,33.1"
         style="fill:#6b6c6f;fill-opacity:1;fill-rule:nonzero;stroke:none"
         id="path306" />
      <path
         d="m 8567.07,6943 c -199.28,24.4 -390.99,53.8 -572.43,88 66.9,-157.8 142.53,-302.4 226.55,-433 160.82,-30.3 330.76,-56.4 507.39,-78 -59.91,127 -113.84,268.2 -161.51,423"
         style="fill:#f5f5f5;fill-opacity:1;fill-rule:nonzero;stroke:none"
         id="path308" />
      <path
         d="m 8412.44,7619.5 c -221.01,27 -433.64,59.7 -634.87,97.6 14.55,-64.3 30.27,-127.6 47.14,-189.7 32.68,-120.4 69.31,-235.4 109.78,-344.7 186.92,-35.2 384.42,-65.5 589.71,-90.6 -28.84,107.5 -54.93,220.9 -78.2,339.8 -12.01,61.4 -23.2,124 -33.56,187.6"
         style="fill:#f5f5f5;fill-opacity:1;fill-rule:nonzero;stroke:none"
         id="path310" />
      <path
         d="m 8329.99,8400.7 c -232.71,28.5 -456.6,62.9 -668.49,102.8 16.19,-210.4 42.55,-413 78.97,-607 204.63,-38.6 420.84,-71.7 645.58,-99.2 -25.9,192.4 -44.61,393.8 -56.06,603.4"
         style="fill:#f5f5f5;fill-opacity:1;fill-rule:nonzero;stroke:none"
         id="path312" />
      <path
         d="m 8322.64,9261.9 c -233.96,28.7 -459.05,63.2 -672.07,103.3 -5.34,-111.8 -8.11,-223.4 -8.32,-334.6 -0.21,-111 2.15,-220.3 7.06,-327.7 213.02,-40.1 438.11,-74.6 672.08,-103.3 -3.45,107.2 -5.07,216.4 -4.86,327.4 0.2,111.2 2.24,222.9 6.11,334.9"
         style="fill:#a0a1a1;fill-opacity:1;fill-rule:nonzero;stroke:none"
         id="path314" />
      <path
         d="m 8390.5,10148.7 c -224.72,27.5 -440.93,60.7 -645.54,99.2 -37.22,-224.3 -64.4,-448.9 -81.42,-672.9 211.88,-39.9 435.77,-74.3 668.47,-102.7 12.27,224.7 31.8,450.5 58.49,676.4"
         style="fill:#f5f5f5;fill-opacity:1;fill-rule:nonzero;stroke:none"
         id="path316" />
      <path
         d="m 8531.65,11031.6 c -205.27,25.2 -402.76,55.5 -589.66,90.7 -41.01,-143 -78.18,-288.5 -111.41,-436.2 -17.08,-75.9 -33.01,-151.9 -47.78,-228 201.22,-37.9 413.83,-70.5 634.83,-97.5 10.59,76.7 22,153.4 34.24,230.1 23.8,149.1 50.42,296.1 79.78,440.9"
         style="fill:#a0a1a1;fill-opacity:1;fill-rule:nonzero;stroke:none"
         id="path318" />
      <path
         d="m 8738.69,11865.6 c -176.61,21.6 -346.53,47.7 -507.33,78 -84.65,-200 -160.95,-407 -228.55,-619.9 181.42,-34.2 373.12,-63.6 572.37,-88 48.38,215.9 102.96,426.2 163.51,629.9"
         style="fill:#f5f5f5;fill-opacity:1;fill-rule:nonzero;stroke:none"
         id="path320" />
      <path
         d="m 9003.81,12620.5 c -139.83,17.1 -274.36,37.7 -401.67,61.7 -92.75,-156.3 -180.73,-322.7 -263.55,-498.6 -8.55,-18.2 -17.02,-36.4 -25.42,-54.7 153.41,-28.8 315.53,-53.7 484.03,-74.3 6,18.6 12.06,37.2 18.18,55.7 59.22,179.6 122.13,349.8 188.43,510.2"
         style="fill:#38383a;fill-opacity:1;fill-rule:nonzero;stroke:none"
         id="path322" />
      <path
         d="m 9312.32,13252.9 c -96.96,11.9 -190.25,26.2 -278.54,42.8 -116.62,-138.7 -228.14,-290.8 -334.02,-455.4 118.49,-22.4 243.7,-41.6 373.83,-57.5 75.69,169.3 155.39,326.3 238.73,470.1"
         style="fill:#38383a;fill-opacity:1;fill-rule:nonzero;stroke:none"
         id="path324" />
      <path
         d="m 9652.24,13739.5 c -49.68,6.1 -97.48,13.4 -142.71,21.9 -124.18,-97 -246.06,-210.4 -365.09,-339.8 78.27,-14.7 160.98,-27.4 246.95,-37.9 85.06,134.6 172.14,253.4 260.85,355.8"
         style="fill:#a0a1a1;fill-opacity:1;fill-rule:nonzero;stroke:none"
         id="path326" />
      <path
         d="m 10009,14057.3 v 0 c -129.19,-53 -256.84,-123.1 -382.39,-209.8 34.64,-6.5 71.23,-12.1 109.27,-16.8 89.69,92.2 180.87,167.9 273.12,226.6"
         style="fill:#6b6c6f;fill-opacity:1;fill-rule:nonzero;stroke:none"
         id="path328" />
      <path
         d="m 9058.02,5882.6 c -36.54,7.7 -71.95,16 -106.1,24.7 45.06,-11 105.2,-25.5 150.46,-35.7 l 19.42,-4.2 c -21.34,4.6 -42.6,9.6 -63.78,15.2"
         style="fill:#f5f5f5;fill-opacity:1;fill-rule:nonzero;stroke:none"
         id="path330" />
      <path
         d="m 8577.77,6106.7 c -114.14,24.3 -221,51.6 -318.82,81.8 139.99,-86.3 287.51,-155.7 441.89,-208 72.89,-22.5 152.52,-42.9 237.57,-60.9 -126,45 -246.4,107.5 -360.64,187.1"
         style="fill:#38383a;fill-opacity:1;fill-rule:nonzero;stroke:none"
         id="path332" />
      <path
         d="m 8161.16,6507.8 c -147.77,31.4 -286.12,66.7 -412.75,105.8 11.2,-12.2 22.5,-24.2 33.89,-36.2 109.17,-114.5 225.22,-215.6 347.63,-303.2 105.09,-32.4 219.91,-61.7 342.54,-87.8 -99.89,81.8 -194.58,177.5 -283.66,286.8 -9.3,11.4 -18.51,23 -27.65,34.6"
         style="fill:#6b6c6f;fill-opacity:1;fill-rule:nonzero;stroke:none"
         id="path334" />
      <path
         d="m 7827.62,7064.4 c -174.73,37.1 -338.32,78.9 -488.05,125.1 88.88,-163.1 189.35,-313.7 300.95,-451 132.73,-41 277.74,-78 432.61,-110.9 -91.05,132.1 -173.01,277.9 -245.51,436.8"
         style="fill:#a0a1a1;fill-opacity:1;fill-rule:nonzero;stroke:none"
         id="path336" />
      <path
         d="m 7592.32,7754.1 c -193.79,41.2 -375.23,87.5 -541.3,138.8 19.35,-65.4 40.25,-129.9 62.69,-193.4 43.45,-123 92.14,-240.9 145.92,-353.5 154.26,-47.6 322.79,-90.6 502.79,-128.9 -43.87,110.1 -83.57,225.6 -119,346.6 -18.29,62.4 -35.32,125.9 -51.1,190.4"
         style="fill:#6b6c6f;fill-opacity:1;fill-rule:nonzero;stroke:none"
         id="path338" />
      <path
         d="m 7466.44,8542.5 c -204.04,43.3 -395.09,92.2 -569.96,146.1 21.62,-211.6 56.73,-416.4 105.19,-613.3 168.87,-52.1 353.37,-99.3 550.43,-141.1 -39.49,194.6 -68.08,397.7 -85.66,608.3"
         style="fill:#a0a1a1;fill-opacity:1;fill-rule:nonzero;stroke:none"
         id="path340" />
      <path
         d="m 7454.46,9404.4 c -205.14,43.6 -397.21,92.7 -573.02,146.9 -7,-111.4 -10.62,-222.8 -10.83,-334 -0.21,-110.9 2.99,-220.4 9.56,-328.2 175.81,-54.3 367.88,-103.4 573.03,-146.9 -5.33,107.5 -7.9,216.8 -7.7,327.8 0.21,111.2 3.2,222.7 8.96,334.4"
         style="fill:#f5f5f5;fill-opacity:1;fill-rule:nonzero;stroke:none"
         id="path342" />
      <path
         d="m 7556.59,10285.6 c -197.04,41.9 -381.53,89 -550.39,141.1 -49.27,-221.4 -85.21,-443.9 -107.66,-666.6 174.86,-53.9 365.9,-102.7 569.94,-146.1 18.41,223.7 47.82,447.9 88.11,671.6"
         style="fill:#151412;fill-opacity:1;fill-rule:nonzero;stroke:none"
         id="path344" />
      <path
         d="m 7769.93,11156.7 c -179.98,38.2 -348.5,81.3 -502.74,128.9 -54.35,-139.8 -103.6,-282.4 -147.61,-427.4 -22.63,-74.5 -43.72,-149.3 -63.28,-224.3 166.06,-51.2 347.49,-97.5 541.26,-138.7 15.99,75.9 33.24,151.6 51.73,227.2 35.98,147.1 76.23,292 120.64,434.3"
         style="fill:#38383a;fill-opacity:1;fill-rule:nonzero;stroke:none"
         id="path346" />
      <path
         d="m 8083.33,11973.2 c -154.86,32.9 -299.85,69.9 -432.55,110.9 -112.24,-193.3 -213.39,-394.3 -302.98,-601.9 149.72,-46.2 313.29,-88 488,-125.1 73.21,211.8 155.84,417.5 247.53,616.1"
         style="fill:#a0a1a1;fill-opacity:1;fill-rule:nonzero;stroke:none"
         id="path348" />
      <path
         d="m 8484.94,12705.7 c -122.61,26 -237.4,55.3 -342.47,87.8 -123.01,-149 -239.68,-308.5 -349.51,-477.9 -11.33,-17.4 -22.57,-35 -33.71,-52.6 126.61,-39.1 264.94,-74.4 412.68,-105.8 9.1,18.1 18.28,36.2 27.54,54.2 89.71,174.6 185.01,339.5 285.47,494.3"
         style="fill:#38383a;fill-opacity:1;fill-rule:nonzero;stroke:none"
         id="path350" />
      <path
         d="m 8952.51,13312 c -85.02,18.1 -164.63,38.4 -237.49,60.9 -154.71,-129.5 -302.64,-272.8 -443.07,-429.1 97.78,-30.2 204.62,-57.5 318.73,-81.7 114.69,162.9 235.49,313.1 361.83,449.9"
         style="fill:#151412;fill-opacity:1;fill-rule:nonzero;stroke:none"
         id="path352" />
      <path
         d="m 9467.88,13769.7 c -43.56,9.3 -84.35,19.7 -121.68,31.2 -164.76,-87.1 -326.47,-190.9 -484.38,-310.9 64.6,-19.9 135.17,-37.9 210.56,-54 128.94,127.5 260.98,238.8 395.5,333.7"
         style="fill:#6b6c6f;fill-opacity:1;fill-rule:nonzero;stroke:none"
         id="path354" />
      <path
         d="m 10009,14057.3 v 0 c -171.46,-42.8 -340.85,-102.8 -507.44,-179.5 28.58,-8.9 59.81,-16.8 93.17,-23.9 136.01,84.5 274.31,152.5 414.27,203.4"
         style="fill:#f5f5f5;fill-opacity:1;fill-rule:nonzero;stroke:none"
         id="path356" />
      <path
         d="m 8169.94,6217.6 c -91.99,32 -174.37,66.8 -245.36,104.2 34.88,-20.2 70.14,-39.8 105.79,-58.6 l 55.47,-28.8 c 111.68,-55.3 113.81,-56.4 177.04,-85.1 114.3,-50.1 118.76,-52 187.08,-79.2 48.95,-18.7 114.41,-43.1 163.73,-60.8 -154.76,54 -302.89,123.5 -443.75,208.3"
         style="fill:#6b6c6f;fill-opacity:1;fill-rule:nonzero;stroke:none"
         id="path358" />
      <path
         d="m 7633.17,6651.4 c -119.1,41.3 -225.74,86.4 -317.64,134.9 13.36,-13.1 26.83,-26 40.43,-38.8 130.24,-122.9 268.69,-233 414.71,-330 76.27,-40.2 164.78,-77.6 263.62,-111.9 -128.7,89.6 -250.71,192.7 -365.49,309 -11.98,12.1 -23.86,24.4 -35.63,36.8"
         style="fill:#151412;fill-opacity:1;fill-rule:nonzero;stroke:none"
         id="path360" />
      <path
         d="m 7203.3,7234.1 c -140.82,49 -266.93,102.2 -375.59,159.6 106.06,-169.9 225.95,-328.3 359.1,-474.2 96.32,-50.9 208.1,-98.1 332.92,-141.5 -117.33,139.3 -222.98,291.6 -316.43,456.1"
         style="fill:#151412;fill-opacity:1;fill-rule:nonzero;stroke:none"
         id="path362" />
      <path
         d="m 6899.89,7942.4 c -156.19,54.2 -296.05,113.3 -416.57,176.9 23.1,-66.9 48.05,-133 74.83,-198.3 51.87,-126.3 109.98,-247.9 174.17,-364.6 111.95,-59.1 241.86,-114 386.93,-164.4 -56.56,113.5 -107.75,232.2 -153.44,355.9 -23.6,63.9 -45.57,128.7 -65.92,194.5"
         style="fill:#f5f5f5;fill-opacity:1;fill-rule:nonzero;stroke:none"
         id="path364" />
      <path
         d="m 6737.35,8740.7 c -164.46,57.2 -311.73,119.4 -438.63,186.3 25.86,-213.3 67.81,-420.8 125.68,-621.5 122.55,-64.6 264.77,-124.7 423.59,-179.9 -50.96,197.8 -87.9,403.1 -110.64,615.1"
         style="fill:#151412;fill-opacity:1;fill-rule:nonzero;stroke:none"
         id="path366" />
      <path
         d="m 6721.45,9603.7 c -165.33,57.5 -313.39,120 -440.98,187.3 -8.31,-110.9 -12.59,-222 -12.8,-333.2 -0.2,-111 3.65,-220.7 11.53,-329 127.58,-67.4 275.65,-129.9 440.98,-187.4 -6.92,108 -10.29,217.5 -10.08,328.5 0.2,111.2 3.99,222.5 11.35,333.8"
         style="fill:#38383a;fill-opacity:1;fill-rule:nonzero;stroke:none"
         id="path368" />
      <path
         d="m 6852.52,10477 c -158.81,55.2 -301.02,115.3 -423.57,180 -58.68,-217.7 -101.47,-437.5 -128.16,-658.5 126.9,-66.9 274.16,-129.1 438.61,-186.3 23.58,222.3 61.35,444.3 113.12,664.8"
         style="fill:#6b6c6f;fill-opacity:1;fill-rule:nonzero;stroke:none"
         id="path370" />
      <path
         d="m 7126.82,11331.5 c -145.06,50.4 -274.96,105.3 -386.9,164.4 -64.77,-135.6 -123.46,-274.4 -175.9,-416.1 -26.96,-72.8 -52.09,-146 -75.39,-219.4 120.51,-63.6 260.37,-122.7 416.54,-177 20.56,74.6 42.73,149 66.5,223.2 46.26,144.3 98.02,286.1 155.15,424.9"
         style="fill:#6b6c6f;fill-opacity:1;fill-rule:nonzero;stroke:none"
         id="path372" />
      <path
         d="m 7530,12123.6 c -124.8,43.4 -236.57,90.6 -332.88,141.4 -133.79,-184.7 -254.35,-377.9 -361.13,-578.7 108.65,-57.3 234.75,-110.6 375.55,-159.5 94.17,206.1 200.49,405.4 318.46,596.8"
         style="fill:#f5f5f5;fill-opacity:1;fill-rule:nonzero;stroke:none"
         id="path374" />
      <path
         d="m 8046.85,12824.8 c -98.81,34.3 -187.3,71.7 -263.55,111.9 -146.66,-139.5 -285.76,-290 -416.68,-451 -13.51,-16.6 -26.91,-33.3 -40.19,-50.1 91.89,-48.4 198.52,-93.5 317.59,-134.9 11.71,17.5 23.52,34.8 35.44,52.1 115.44,167.5 238.09,325 367.39,472"
         style="fill:#151412;fill-opacity:1;fill-rule:nonzero;stroke:none"
         id="path376" />
      <path
         d="m 8648.72,13394.6 c -68.53,23.8 -129.89,49.7 -182.77,77.6 -184.47,-117.6 -360.85,-249.5 -528.28,-395.1 70.96,-37.4 153.32,-72.2 245.28,-104.2 147.63,154 303.13,294.8 465.77,421.7"
         style="fill:#a0a1a1;fill-opacity:1;fill-rule:nonzero;stroke:none"
         id="path378" />
      <path
         d="m 9312.23,13812.1 c -35.11,12.2 -66.55,25.4 -93.65,39.7 -196.46,-74.5 -389.3,-165.8 -577.59,-273.7 46.88,-24.7 101.28,-47.7 162.04,-68.8 166,117.3 336,218.4 509.2,302.8"
         style="fill:#6b6c6f;fill-opacity:1;fill-rule:nonzero;stroke:none"
         id="path380" />
      <path
         d="m 10009,14057.3 v 0 c -204.49,-29.6 -406.5,-76.6 -605.15,-140.5 20.74,-11 44.81,-21.2 71.7,-30.5 175.12,73.9 353.2,131.1 533.45,171"
         style="fill:#38383a;fill-opacity:1;fill-rule:nonzero;stroke:none"
         id="path382" />
      <path
         d="m 7234.02,6832.6 c -60.35,37 -110.3,74.7 -150.16,112.7 l 51.37,-48.2 c 87.81,-79.4 87.81,-79.4 133.71,-118.4 91.45,-76 91.45,-76 139.37,-113.3 95.18,-72.5 95.18,-72.5 145.3,-108.3 36.44,-25.3 85.15,-59 122.02,-83.7 8.83,-5.8 17.96,-11.6 27.4,-17.4 -150.47,99.5 -293.13,211.9 -427.34,337.1 -14.01,13 -27.9,26.2 -41.67,39.5"
         style="fill:#a0a1a1;fill-opacity:1;fill-rule:nonzero;stroke:none"
         id="path384" />
      <path
         d="m 6731.33,7448.4 c -96.14,59 -169.95,119.3 -222.34,180.2 62.95,-93.8 141.31,-210.4 286.37,-379.9 26.95,-30.6 63,-71.4 90.45,-101.7 l 34.59,-37.2 c 45.05,-47.8 105.18,-95.3 180.98,-141.8 -137.21,148.3 -260.75,308.7 -370.05,480.4"
         style="fill:#a0a1a1;fill-opacity:1;fill-rule:nonzero;stroke:none"
         id="path386" />
      <path
         d="m 6376.43,8180.1 c -106.63,65.4 -188.49,132.3 -246.6,199.8 25.44,-68.7 52.91,-136.6 82.39,-203.9 57.11,-130.2 121.09,-256.1 191.76,-377.6 53.97,-62.7 130.01,-124.8 229.05,-185.6 -66.15,117.8 -126.03,240.4 -179.48,367.7 -27.6,65.7 -53.31,132.2 -77.12,199.6"
         style="fill:#a0a1a1;fill-opacity:1;fill-rule:nonzero;stroke:none"
         id="path388" />
      <path
         d="m 6186.17,8991 c -112.28,68.9 -198.47,139.3 -259.66,210.4 28.5,-215.3 74.71,-425.9 138.44,-630.9 59.09,-68.6 142.32,-136.7 250.75,-203.2 -59.63,201.7 -102.87,409.9 -129.53,623.7"
         style="fill:#f5f5f5;fill-opacity:1;fill-rule:nonzero;stroke:none"
         id="path390" />
      <path
         d="m 6167.32,9855.3 c -112.88,69.3 -199.53,140.1 -261.05,211.6 -9.13,-110.3 -13.82,-221.2 -14.02,-332.3 -0.21,-111 4.05,-221.1 12.74,-330 61.52,-71.4 148.17,-142.2 261.05,-211.5 -8.12,108.4 -12.09,218.2 -11.89,329.2 0.21,111.2 4.61,222.3 13.17,333"
         style="fill:#6b6c6f;fill-opacity:1;fill-rule:nonzero;stroke:none"
         id="path392" />
      <path
         d="m 6320.26,10718.7 c -108.42,66.6 -191.65,134.6 -250.74,203.2 -64.55,-213.3 -111.59,-430 -140.93,-649 61.19,-71.1 147.37,-141.5 259.65,-210.4 27.5,220.5 71.57,439.6 132.02,656.2"
         style="fill:#151412;fill-opacity:1;fill-rule:nonzero;stroke:none"
         id="path394" />
      <path
         d="m 6640.64,11552.3 c -99.03,60.8 -175.06,122.9 -229.03,185.6 -71.26,-130.9 -135.83,-265.3 -193.52,-403.1 -29.65,-70.9 -57.3,-142.2 -82.93,-213.9 58.11,-67.5 139.96,-134.3 246.58,-199.8 24.01,73 49.91,145.8 77.68,218.1 54.03,140.8 114.49,278.6 181.22,413.1"
         style="fill:#6b6c6f;fill-opacity:1;fill-rule:nonzero;stroke:none"
         id="path396" />
      <path
         d="m 7111.71,12313.5 c -85.21,52.4 -150.62,105.8 -197.06,159.7 -147.21,-174.8 -279.87,-359.1 -397.35,-552 52.39,-60.8 126.19,-121.1 222.32,-180.1 110.02,198.9 234.24,390.1 372.09,572.4"
         style="fill:#151412;fill-opacity:1;fill-rule:nonzero;stroke:none"
         id="path398" />
      <path
         d="m 7715.67,12975.1 c -67.46,41.5 -119.25,83.8 -156.02,126.5 -161.38,-128.7 -314.44,-269 -458.5,-420.2 -14.87,-15.6 -29.61,-31.3 -44.22,-47.1 44.3,-51.5 106.71,-102.5 188.01,-152.4 13.68,16.6 27.48,33 41.4,49.4 134.9,158.7 278.22,306.8 429.33,443.8"
         style="fill:#f5f5f5;fill-opacity:1;fill-rule:nonzero;stroke:none"
         id="path400" />
      <path
         d="m 8419.06,13498.9 c -46.79,28.7 -82.7,58 -108.19,87.6 -203.01,-103.9 -397.1,-222.8 -581.35,-355.9 34.22,-39.8 82.42,-79.2 145.21,-117.7 172.52,142.6 354.25,271.5 544.33,386"
         style="fill:#38383a;fill-opacity:1;fill-rule:nonzero;stroke:none"
         id="path402" />
      <path
         d="m 9194.56,13865.5 c -23.97,14.7 -42.37,29.7 -55.44,44.9 -216.21,-59.9 -428.42,-137 -635.64,-231 22.61,-26.2 54.45,-52.2 95.93,-77.7 194.02,104.7 392.71,192.7 595.15,263.8"
         style="fill:#a0a1a1;fill-opacity:1;fill-rule:nonzero;stroke:none"
         id="path404" />
      <path
         d="m 10009,14057.4 v 0 c -225.05,-14.6 -447.37,-46.6 -666,-95.8 10.01,-11.6 24.09,-23.1 42.45,-34.4 204.69,60.5 412.85,104 623.55,130.2"
         style="fill:#f5f5f5;fill-opacity:1;fill-rule:nonzero;stroke:none"
         id="path406" />
      <path
         d="m 6082.27,8443.3 c -16.8,26.2 -30.08,52.5 -39.91,78.8 l 24.15,-63.1 c 44.16,-109.2 44.16,-109.2 68.18,-163.6 47.12,-103.9 47.12,-103.9 72.37,-155.4 51.21,-101.7 51.21,-101.7 78.53,-152.2 19.25,-34.6 45.01,-80.8 64.8,-115.2 2.99,-5.1 6.13,-10.2 9.41,-15.3 -71.54,122.6 -136.31,249.6 -194.12,380.8 -29.85,67.7 -57.66,136.1 -83.41,205.2"
         style="fill:#6b6c6f;fill-opacity:1;fill-rule:nonzero;stroke:none"
         id="path408" />
      <path
         d="m 5876.43,9268.1 c -33.91,53 -54.22,106.2 -61.38,159.2 5.36,-36.8 12.49,-85.9 18.39,-122.6 20.23,-114.9 20.23,-114.9 32.21,-172.4 25.03,-113.9 25.03,-113.9 39.43,-170.9 29.81,-112.9 29.81,-112.9 46.62,-169.2 l 18.02,-58.9 c 10.32,-32.8 25.9,-65.6 46.86,-98.4 -64.51,206.1 -111.29,417.5 -140.15,633.2"
         style="fill:#6b6c6f;fill-opacity:1;fill-rule:nonzero;stroke:none"
         id="path410" />
      <path
         d="m 5855.92,10134 c -45.9,71.7 -67.02,143.8 -64.45,215.3 -7.63,-101.6 -8.61,-114.6 -11.82,-194.9 -1.14,-44.3 -2.41,-103.3 -2.79,-147.6 0.98,-118 0.98,-118 3.29,-177.1 5.8,-117.4 5.8,-117.4 10.53,-176.2 l 0.38,-4.6 c 4.81,-58.9 25.81,-118.2 63.58,-177.2 -8.8,109.1 -13.11,219.2 -12.91,330.2 0.21,111.2 4.95,221.9 14.19,332.1"
         style="fill:#151412;fill-opacity:1;fill-rule:nonzero;stroke:none"
         id="path412" />
      <path
         d="m 6021.16,10986.4 c -44.1,68.9 -64.38,138.1 -61.91,206.8 -66.34,-208.9 -114.7,-422.4 -144.85,-639.4 -2.56,-71.1 18.45,-142.8 64.11,-214.1 29.69,218.5 77.31,434.4 142.65,646.7"
         style="fill:#38383a;fill-opacity:1;fill-rule:nonzero;stroke:none"
         id="path414" />
      <path
         d="m 6367.43,11796.8 c -40.28,62.9 -58.8,126.1 -56.55,188.8 -73.25,-125.9 -139.61,-255.9 -198.91,-389.8 -30.48,-68.8 -58.9,-138.2 -85.25,-208.1 -2.43,-67.6 17.52,-135.6 60.88,-203.4 25.95,71.3 53.93,142.2 83.95,212.5 58.39,136.9 123.75,270.3 195.88,400"
         style="fill:#a0a1a1;fill-opacity:1;fill-rule:nonzero;stroke:none"
         id="path416" />
      <path
         d="m 6876.64,12523.9 c -34.65,54.1 -50.59,108.5 -48.65,162.5 -151.33,-164.7 -287.69,-339.8 -408.46,-524.7 -2.19,-60.9 15.8,-122.2 54.89,-183.3 118.93,191 253.21,373.1 402.22,545.5"
         style="fill:#a0a1a1;fill-opacity:1;fill-rule:nonzero;stroke:none"
         id="path418" />
      <path
         d="m 7529.56,13141.7 c -27.44,42.8 -40.06,85.9 -38.52,128.6 -165.9,-117.5 -323.24,-247.2 -471.33,-388.6 -15.28,-14.6 -30.44,-29.3 -45.46,-44 -1.85,-51.5 13.36,-103.4 46.42,-155.1 14.79,15.6 29.71,31 44.76,46.4 145.83,148.9 300.77,286.6 464.13,412.7"
         style="fill:#151412;fill-opacity:1;fill-rule:nonzero;stroke:none"
         id="path420" />
      <path
         d="m 8290,13614.3 c -19.03,29.8 -27.78,59.6 -26.71,89.3 -208.7,-90 -408.22,-195.5 -597.63,-316 -1.43,-39.7 10.32,-79.8 35.85,-119.7 186.52,130.1 382.99,245.8 588.49,346.4"
         style="fill:#f5f5f5;fill-opacity:1;fill-rule:nonzero;stroke:none"
         id="path422" />
      <path
         d="m 9128.43,13924.7 c -9.75,15.2 -14.23,30.5 -13.69,45.7 -222.27,-45.1 -440.42,-107.5 -653.44,-187.2 -0.95,-26.3 6.81,-52.7 23.68,-79.1 209.76,90.6 424.58,164.2 643.45,220.6"
         style="fill:#6b6c6f;fill-opacity:1;fill-rule:nonzero;stroke:none"
         id="path424" />
      <path
         d="m 10009,14057.4 v 0 c -231.36,0.9 -459.91,-15.7 -684.66,-49.9 -0.42,-11.6 3.01,-23.3 10.48,-35 221.31,45.6 446.36,74 674.18,84.9"
         style="fill:#f5f5f5;fill-opacity:1;fill-rule:nonzero;stroke:none"
         id="path426" />
      <path
         d="m 5968.21,11257.4 c 1.89,7.8 4.07,15.5 6.54,23.3 l -18.48,-59.6 c -32.64,-112.2 -32.64,-112.2 -47.27,-169.2 l -13.18,-52.7 c 21.1,86.9 45.23,172.9 72.39,258.2"
         style="fill:#f5f5f5;fill-opacity:1;fill-rule:nonzero;stroke:none"
         id="path428" />
      <path
         d="m 6319.07,12044.3 c 11.19,29.2 24.75,69 39.96,96.3 -19.89,-34.6 -46.3,-80.8 -65.64,-115.7 -53.65,-100.5 -53.65,-100.5 -79.17,-152.1 -49.57,-102.7 -49.57,-102.7 -73.01,-155.2 -46.95,-108.3 -46.95,-108.3 -68.82,-163.5 l -24.13,-62.3 c -5.16,-13.6 -9.4,-27.3 -12.73,-41 26.29,69.6 54.65,138.5 85.06,206.9 59.17,132.9 125.39,261.8 198.48,386.6"
         style="fill:#6b6c6f;fill-opacity:1;fill-rule:nonzero;stroke:none"
         id="path430" />
      <path
         d="m 6835.03,12736.9 c 13.05,53.6 43.72,106.7 91.2,158.4 -13.85,-14.6 -27.57,-29.3 -41.17,-44.1 -31.4,-35 -72.95,-81.8 -103.7,-117.4 -73.84,-88.5 -73.84,-88.5 -109.88,-134.5 -69.83,-91.1 -69.83,-91.1 -103.73,-138.3 -27.06,-38.5 -62.78,-90.1 -89.12,-129.1 -24.77,-37.3 -41.9,-75.1 -51.16,-113.2 120.51,182.9 256.57,355.9 407.56,518.2"
         style="fill:#38383a;fill-opacity:1;fill-rule:nonzero;stroke:none"
         id="path432" />
      <path
         d="m 7496.61,13310.3 c 10.33,42.5 34.62,84.5 72.21,125.5 -160.77,-106.7 -313.26,-226.1 -456.78,-357.7 -14.81,-13.6 -29.5,-27.3 -44.06,-41.1 -45.3,-49.4 -74.57,-100 -87.01,-151.2 14.99,14.6 30.11,29 45.35,43.3 147.77,139.1 304.77,266.3 470.29,381.2"
         style="fill:#6b6c6f;fill-opacity:1;fill-rule:nonzero;stroke:none"
         id="path434" />
      <path
         d="m 8267.15,13731.3 c 7.17,29.4 24.01,58.6 50.08,87 -202.25,-76.3 -395.61,-168.7 -579.17,-276.7 -34.99,-38.1 -57.6,-77.2 -67.21,-116.8 188.99,117.5 388.07,219.8 596.3,306.5"
         style="fill:#f5f5f5;fill-opacity:1;fill-rule:nonzero;stroke:none"
         id="path436" />
      <path
         d="m 9116.72,13984.6 c 3.67,15.1 12.3,30 25.66,44.6 -215.4,-30.5 -426.82,-78.6 -633.26,-144.3 -23.11,-25.2 -38.04,-51 -44.39,-77.1 212.54,76.3 430.21,135.3 651.99,176.8"
         style="fill:#a0a1a1;fill-opacity:1;fill-rule:nonzero;stroke:none"
         id="path438" />
      <path
         d="m 10009,14057.4 v 0 c -224.21,16.2 -445.7,14.5 -663.5,-4.9 -10.23,-11.1 -16.84,-22.6 -19.65,-34.1 224.26,30.6 452.3,43.6 683.15,39"
         style="fill:#6b6c6f;fill-opacity:1;fill-rule:nonzero;stroke:none"
         id="path440" />
      <path
         d="m 7607.95,13473.9 c 24.04,21.1 51.67,41.9 82.81,62.3 -37.04,-24.9 -86.3,-58.2 -122.91,-83.7 -94.78,-68.5 -96.59,-69.8 -145.7,-107.7 -91.24,-72.1 -92.98,-73.4 -139.86,-112.9 -20.63,-17.8 -48.32,-41.2 -68.76,-59.2 124.99,109.9 256.61,210.4 394.42,301.2"
         style="fill:#6b6c6f;fill-opacity:1;fill-rule:nonzero;stroke:none"
         id="path442" />
      <path
         d="m 8344.36,13844.7 c 31.79,27.9 72.67,55 122.18,81 -145.88,-50.2 -286.68,-110.9 -422,-181.7 l -0.49,-0.3 c -43.79,-23.5 -101.95,-55.3 -145.27,-79.7 -38.39,-24.4 -88.53,-58.8 -124.31,-86.9 180.62,105.1 370.88,194.5 569.89,267.6"
         style="fill:#a0a1a1;fill-opacity:1;fill-rule:nonzero;stroke:none"
         id="path444" />
      <path
         d="m 9156.28,14042.7 c 16.29,14.3 37.24,28.2 62.6,41.5 -196.39,-16.8 -389.15,-51.5 -577.38,-104.1 -43.89,-22.9 -80.13,-47 -108.32,-71.7 203.13,62.4 411.15,107.2 623.1,134.3"
         style="fill:#6b6c6f;fill-opacity:1;fill-rule:nonzero;stroke:none"
         id="path446" />
      <path
         d="m 10009,14057.4 v 0 c -204.41,30.4 -406.35,42.8 -604.93,37.2 -19.42,-10.1 -35.45,-20.8 -47.93,-31.7 214.31,16 432.25,14.2 652.86,-5.5"
         style="fill:#6b6c6f;fill-opacity:1;fill-rule:nonzero;stroke:none"
         id="path448" />
      <path
         d="m 8515.47,13949.6 c 44.98,20.6 95.66,40.3 151.8,59 l -69.79,-23.9 c -113.46,-41.5 -122.72,-44.9 -195.68,-74.5 -48.18,-20.4 -112.21,-48.1 -159.96,-69.4 88.99,40.8 180.24,77.1 273.63,108.8"
         style="fill:#6b6c6f;fill-opacity:1;fill-rule:nonzero;stroke:none"
         id="path450" />
      <path
         d="m 9243.96,14096.4 c 28.1,12.9 60.56,25.1 97.13,36.5 -166.03,-4.7 -328.99,-27.5 -488.13,-68.5 -63.28,-19.6 -119.44,-40.8 -168.07,-63 182.26,49.6 368.9,81.3 559.07,95"
         style="fill:#151412;fill-opacity:1;fill-rule:nonzero;stroke:none"
         id="path452" />
      <path
         d="m 10009,14057.4 c 0,0 0,0 0,0 -172.78,43 -343.49,67.8 -511.36,74.5 -28,-8.7 -52.85,-18 -74.37,-27.9 192.28,2.5 387.81,-13 585.73,-46.6"
         style="fill:#151412;fill-opacity:1;fill-rule:nonzero;stroke:none"
         id="path454" />
      <path
         d="m 9376.58,14143.3 c 39.12,10.8 82.29,20.6 129.27,29.4 -95.59,4 -189.84,-2.7 -282.48,-20.1 l -33.28,-6.4 c -121.36,-25.2 -134.05,-27.9 -218.95,-48.9 l -56.76,-14.9 c 150.68,38.5 304.99,58.8 462.2,60.9"
         style="fill:#f5f5f5;fill-opacity:1;fill-rule:nonzero;stroke:none"
         id="path456" />
      <path
         d="m 10009,14057.4 v 0 c -130.14,53.3 -258.73,88.3 -385.2,105 -35.97,-6.7 -69.03,-14.2 -98.98,-22.5 158.95,-9.3 320.59,-36.8 484.18,-82.5"
         style="fill:#6b6c6f;fill-opacity:1;fill-rule:nonzero;stroke:none"
         id="path458" />
      <path
         d="m 9551.01,14180.6 c 20.77,3.4 42.21,6.6 64.29,9.6 30.36,4.1 61.16,7.6 92.25,10.7 -40.08,6.5 -79.78,7.8 -119.03,3.7 -44.92,-4.9 -104.81,-11.7 -149.63,-17.4 -36.89,-5.4 -86.12,-12.4 -122.93,-18.4 77.22,12.9 155.63,16.8 235.05,11.8"
         style="fill:#6b6c6f;fill-opacity:1;fill-rule:nonzero;stroke:none"
         id="path460" />
      <path
         d="m 10009,14057.4 v 0 0 c -77.93,60.6 -154.98,102.8 -230.76,126.6 -23.81,-2.3 -47.39,-5.1 -70.64,-8.2 -16.91,-2.3 -33.32,-4.7 -49.22,-7.3 115.12,-18.7 232.17,-55.7 350.62,-111.1"
         style="fill:#38383a;fill-opacity:1;fill-rule:nonzero;stroke:none"
         id="path462" />
      <path
         d="m 10009,14057.4 v 0 c -22.39,64 -44.58,109.5 -66.44,136.6 -42.03,-1.1 -84.07,-3.3 -125.57,-6.6 63.06,-24.9 127.17,-68.2 192.01,-130"
         style="fill:#f5f5f5;fill-opacity:1;fill-rule:nonzero;stroke:none"
         id="path464" />
      <path
         d="m 10009.1,14057.4 v 0 c 33.1,63.5 65.7,108.6 97.8,135.2 -41.1,1.7 -82.9,2.4 -124.94,2 8.93,-27.2 17.97,-73 27.14,-137.2"
         style="fill:#6b6c6f;fill-opacity:1;fill-rule:nonzero;stroke:none"
         id="path466" />
      <path
         d="m 10187,14209.6 c 53.1,-3.1 105.1,-7.5 155.4,-13.2 45.7,6.1 91.1,6.6 135.8,1.5 l -38.8,4.2 c -123,11.4 -125.4,11.6 -192.5,15.6 -19.8,1.2 -39.8,-1.5 -59.9,-8.1"
         style="fill:#231f20;fill-opacity:1;fill-rule:nonzero;stroke:none"
         id="path468" />
      <path
         d="m 10009.1,14057.4 v 0 c 86.3,59.4 171.5,100.5 255.2,123.1 -38.5,4.4 -78.3,7.8 -119,10.2 -44.7,-26 -90.2,-70.4 -136.2,-133.3"
         style="fill:#38383a;fill-opacity:1;fill-rule:nonzero;stroke:none"
         id="path470" />
      <path
         d="m 10388.9,14190.7 c 49.1,-6.5 96.2,-14.2 140.6,-23.1 103.3,3.1 205.1,-5.4 305,-25.7 -54.5,10.3 -127.3,23.4 -182.1,32.5 l -95.9,13.8 c -67,7.4 -101.5,7.9 -167.6,2.5"
         style="fill:#151412;fill-opacity:1;fill-rule:nonzero;stroke:none"
         id="path472" />
      <path
         d="m 10009.1,14057.4 v 0 c 134.7,52 267.7,85.7 398.5,101.1 -34,6.8 -70.1,12.7 -107.7,17.7 -95.4,-21.2 -192.5,-60.8 -290.8,-118.8"
         style="fill:#38383a;fill-opacity:1;fill-rule:nonzero;stroke:none"
         id="path474" />
      <path
         d="m 10570.3,14158.9 c 42.7,-9.6 82.5,-20.4 118.7,-32.3 168.9,-6.2 334.7,-30.5 496.4,-73 -42.2,13.8 -87.2,26.8 -134.7,38.9 -35.2,8.6 -82.2,20.3 -117.6,28.4 -118.6,26.9 -239.6,39.6 -362.8,38"
         style="fill:#38383a;fill-opacity:1;fill-rule:nonzero;stroke:none"
         id="path476" />
      <path
         d="m 10009.1,14057.4 v 0 c 176,41.4 349.8,64.6 520.6,69.8 -27.7,9 -58.2,17.3 -90.9,24.7 -141,-13.3 -284.4,-44.8 -429.7,-94.5"
         style="fill:#a0a1a1;fill-opacity:1;fill-rule:nonzero;stroke:none"
         id="path478" />
      <path
         d="m 11400,13986.2 c 66.1,-24.4 124.9,-51 175,-79.4 178,-62.6 348.6,-140.2 510.9,-232.4 -33.8,18.7 -78.8,43.7 -112.8,61.9 -110.2,56.6 -112.3,57.7 -174.2,86.9 -112.7,51.5 -117.1,53.5 -183.6,81.1 -44.2,17.8 -103.3,41.1 -147.9,58 -22.4,8.3 -44.8,16.2 -67.4,23.9"
         style="fill:#6b6c6f;fill-opacity:1;fill-rule:nonzero;stroke:none"
         id="path480" />
      <path
         d="m 10721.9,14115.2 c 33.9,-12.5 64,-26.1 89.7,-40.7 199.3,-19.2 395,-56.2 585.9,-111.1 -44.4,25.2 -96.5,48.7 -155.1,70.4 -169.6,45.2 -343.4,72.3 -520.5,81.4"
         style="fill:#6b6c6f;fill-opacity:1;fill-rule:nonzero;stroke:none"
         id="path482" />
      <path
         d="m 10009.1,14057.4 v 0 c 207.7,27.9 412.8,37.8 614.4,29.8 -19.6,11.2 -42.7,21.6 -68.6,31.2 -179.1,-2.2 -361.3,-22.6 -545.8,-61"
         style="fill:#6b6c6f;fill-opacity:1;fill-rule:nonzero;stroke:none"
         id="path484" />
      <path
         d="m 10000,15159.1 c -237.46,0 -430.65,-193.2 -430.65,-430.7 0,-237.4 193.19,-430.6 430.65,-430.6 237.5,0 430.6,193.2 430.6,430.6 0,237.5 -193.1,430.7 -430.6,430.7 z m 0,-1096.4 c -367.07,0 -665.71,298.7 -665.71,665.7 0,367.1 298.64,665.8 665.71,665.8 367.1,0 665.7,-298.7 665.7,-665.8 0,-367 -298.6,-665.7 -665.7,-665.7"
         style="fill:#38383a;fill-opacity:1;fill-rule:nonzero;stroke:none"
         id="path486" />
      <path
         d="m 10009,14925.8 c -60.26,0 -109.09,48.8 -109.09,109 v 4595.1 c 0,60.2 48.83,109.1 109.09,109.1 60.2,0 109.1,-48.9 109.1,-109.1 v -4595.1 c 0,-60.2 -48.9,-109 -109.1,-109"
         style="fill:#38383a;fill-opacity:1;fill-rule:nonzero;stroke:none"
         id="path488" />
      <path
         d="m 14223.2,13407.7 c -14.7,-326.5 -26.6,-338.4 -353.1,-353.1 326.5,-14.7 338.4,-26.6 353.1,-353.1 14.6,326.5 26.5,338.4 353,353.1 -326.5,14.7 -338.4,26.6 -353,353.1"
         style="fill:#38383a;fill-opacity:1;fill-rule:nonzero;stroke:none"
         id="path490" />
      <path
         d="m 16387.9,12819.1 c 11.9,264.3 21.5,273.9 285.8,285.8 -264.3,11.8 -273.9,21.5 -285.8,285.8 -11.9,-264.3 -21.5,-274 -285.8,-285.8 264.3,-11.9 273.9,-21.5 285.8,-285.8"
         style="fill:#f5f5f5;fill-opacity:1;fill-rule:nonzero;stroke:none"
         id="path492" />
      <path
         d="m 5228.52,9236.8 c 40.56,-1.8 42.04,-3.3 43.86,-43.9 1.83,40.6 3.31,42.1 43.87,43.9 -40.56,1.8 -42.04,3.3 -43.87,43.9 -1.82,-40.6 -3.3,-42.1 -43.86,-43.9"
         style="fill:#6b6c6f;fill-opacity:1;fill-rule:nonzero;stroke:none"
         id="path494" />
      <path
         d="m 8524.2,4503 c -21.58,-480 -39.07,-497.5 -519.11,-519.1 480.04,-21.5 497.53,-39 519.11,-519.1 21.58,480.1 39.07,497.6 519.11,519.1 -480.04,21.6 -497.53,39.1 -519.11,519.1"
         style="fill:#6b6c6f;fill-opacity:1;fill-rule:nonzero;stroke:none"
         id="path496" />
      <path
         d="m 5553.2,14248.4 c -31.24,-694.9 -56.56,-720.2 -751.49,-751.5 694.93,-31.2 720.25,-56.5 751.49,-751.5 31.24,695 56.56,720.3 751.49,751.5 -694.93,31.3 -720.25,56.6 -751.49,751.5"
         style="fill:#38383a;fill-opacity:1;fill-rule:nonzero;stroke:none"
         id="path498" />
      <path
         d="m 15205,9633.1 c -26.6,-592.1 -48.2,-613.6 -640.2,-640.3 592,-26.6 613.6,-48.1 640.2,-640.2 26.6,592.1 48.2,613.6 640.2,640.2 -592,26.7 -613.6,48.2 -640.2,640.3"
         style="fill:#a0a1a1;fill-opacity:1;fill-rule:nonzero;stroke:none"
         id="path500" />
      <path
         d="m 4002.6,10734.5 c 16.42,365.2 29.72,378.5 394.91,394.9 -365.19,16.4 -378.49,29.7 -394.91,394.9 -16.42,-365.2 -29.72,-378.5 -394.91,-394.9 365.19,-16.4 378.49,-29.7 394.91,-394.9"
         style="fill:#f5f5f5;fill-opacity:1;fill-rule:nonzero;stroke:none"
         id="path502" />
      <path
         d="m 4050.22,10072.5 c -18.4,-409.2 -33.31,-424.1 -442.53,-442.5 409.22,-18.4 424.13,-33.4 442.53,-442.6 18.39,409.2 33.31,424.2 442.53,442.6 -409.22,18.4 -424.14,33.3 -442.53,442.5"
         style="fill:#a0a1a1;fill-opacity:1;fill-rule:nonzero;stroke:none"
         id="path504" />
      <path
         d="m 5450.94,11749.4 c 7.43,165.1 13.44,171.1 178.56,178.5 -165.12,7.5 -171.13,13.5 -178.56,178.6 -7.42,-165.1 -13.44,-171.1 -178.56,-178.6 165.12,-7.4 171.14,-13.4 178.56,-178.5"
         style="fill:#f5f5f5;fill-opacity:1;fill-rule:nonzero;stroke:none"
         id="path506" />
      <path
         d="m 5316.25,7652.3 c -29.32,-652.3 -53.09,-676 -705.4,-705.4 652.31,-29.3 676.08,-53 705.4,-705.4 29.33,652.4 53.1,676.1 705.4,705.4 -652.3,29.4 -676.07,53.1 -705.4,705.4"
         style="fill:#38383a;fill-opacity:1;fill-rule:nonzero;stroke:none"
         id="path508" />
      <path
         d="m 5313.09,8051.7 c 5.73,127.5 10.37,132.1 137.85,137.8 -127.48,5.8 -132.12,10.4 -137.85,137.9 -5.74,-127.5 -10.38,-132.1 -137.86,-137.9 127.48,-5.7 132.12,-10.3 137.86,-137.8"
         style="fill:#f5f5f5;fill-opacity:1;fill-rule:nonzero;stroke:none"
         id="path510" />
      <path
         d="m 11528.8,5397.2 c -8,-178.1 -14.5,-184.6 -192.5,-192.6 178,-8 184.5,-14.5 192.5,-192.5 8,178 14.5,184.5 192.6,192.5 -178.1,8 -184.6,14.5 -192.6,192.6"
         style="fill:#a0a1a1;fill-opacity:1;fill-rule:nonzero;stroke:none"
         id="path512" />
      <path
         d="m 13101.3,6514.2 c -15.1,-336.2 -27.3,-348.4 -363.5,-363.5 336.2,-15.1 348.4,-27.4 363.5,-363.6 15.2,336.2 27.4,348.5 363.6,363.6 -336.2,15.1 -348.4,27.3 -363.6,363.5"
         style="fill:#a0a1a1;fill-opacity:1;fill-rule:nonzero;stroke:none"
         id="path514" />
      <path
         d="m 13534.7,7195.7 c -9.8,-218.5 -17.8,-226.4 -236.2,-236.3 218.4,-9.8 226.4,-17.7 236.2,-236.2 9.8,218.5 17.8,226.4 236.2,236.2 -218.4,9.9 -226.4,17.8 -236.2,236.3"
         style="fill:#151412;fill-opacity:1;fill-rule:nonzero;stroke:none"
         id="path516" />
      <path
         d="m 15205,7634.4 c -18.2,-405.7 -33,-420.5 -438.7,-438.7 405.7,-18.3 420.5,-33.1 438.7,-438.8 18.3,405.7 33,420.5 438.8,438.8 -405.8,18.2 -420.5,33 -438.8,438.7"
         style="fill:#151412;fill-opacity:1;fill-rule:nonzero;stroke:none"
         id="path518" />
      <path
         d="m 16387.9,10986.3 c -24.4,-542.2 -44.1,-561.9 -586.2,-586.3 542.1,-24.3 561.8,-44.1 586.2,-586.2 24.4,542.1 44.1,561.9 586.2,586.2 -542.1,24.4 -561.8,44.1 -586.2,586.3"
         style="fill:#f5f5f5;fill-opacity:1;fill-rule:nonzero;stroke:none"
         id="path520" />
    </g>
  </g>
</svg>
